<?xml version="1.0" encoding="UTF-8" standalone="no"?>
<svg width="243px" height="82px" viewBox="0 0 243 82" version="1.1" xmlns="http://www.w3.org/2000/svg" xmlns:xlink="http://www.w3.org/1999/xlink">
    <!-- Generator: Sketch 41.2 (35397) - http://www.bohemiancoding.com/sketch -->
    <title>Group</title>
    <desc>Created with Sketch.</desc>
    <defs></defs>
    <g id="Page-1" stroke="none" stroke-width="1" fill="none" fill-rule="evenodd">
        <g id="iPhone-7" transform="translate(-547.000000, -125.000000)" fill="#E6E6E6">
            <g id="Group" transform="translate(547.000000, 125.000000)">
                <path d="M0.26953125,33.578125 L0.26953125,32.8417969 C0.26953125,32.6894524 0.35416582,32.5963543 0.5234375,32.5625 C0.625000508,32.5625 0.81966002,32.5540365 1.10742188,32.5371094 C1.39518373,32.5201822 1.70833164,32.4947918 2.046875,32.4609375 C2.38541836,32.4270832 2.70702973,32.4016928 3.01171875,32.3847656 C3.31640777,32.3678385 3.51953074,32.359375 3.62109375,32.359375 C3.99349145,32.359375 4.15429713,32.4863269 4.10351562,32.7402344 C4.05273412,32.9941419 4.01041684,33.3242167 3.9765625,33.7304688 C3.80729082,33.7981774 3.63802168,33.8404947 3.46875,33.8574219 C3.29947832,33.874349 3.13020918,33.8828125 2.9609375,33.8828125 C2.79166582,33.8828125 2.61393322,33.9166663 2.42773438,33.984375 C2.24153553,34.0520837 2.04687602,34.1705721 1.84375,34.3398438 L1.5390625,36.828125 C1.60677117,36.929688 1.65755191,37.0820302 1.69140625,37.2851562 C1.72526059,37.4882823 1.7421875,37.6998687 1.7421875,37.9199219 L1.7421875,38.9609375 C1.94531352,40.2135479 2.1653634,41.2968704 2.40234375,42.2109375 C2.6393241,43.1250046 2.96939893,43.9036426 3.39257812,44.546875 C3.81575732,45.1901074 4.38280895,45.6894513 5.09375,46.0449219 C5.80469105,46.4003924 6.76952516,46.6458327 7.98828125,46.78125 L8.546875,46.78125 C9.05469004,46.78125 9.554034,46.688152 10.0449219,46.5019531 C10.5358097,46.3157543 10.9759095,46.0533871 11.3652344,45.7148438 C11.7545592,45.3763004 12.0761706,44.9785179 12.3300781,44.5214844 C12.5839856,44.0644508 12.7278644,43.5651069 12.7617188,43.0234375 C12.8971361,41.7369727 12.8294284,40.4843811 12.5585938,39.265625 C12.2877591,38.0468689 11.915367,36.845058 11.4414062,35.6601562 C10.9674455,34.4752545 10.4173208,33.3072974 9.79101562,32.15625 C9.16471041,31.0052026 8.54687805,29.8710993 7.9375,28.7539062 C7.9375,28.7200519 7.88671926,28.6438808 7.78515625,28.5253906 C7.68359324,28.4069004 7.61588559,28.3476562 7.58203125,28.3476562 C7.51432258,28.2122389 7.38737072,28.0175794 7.20117188,27.7636719 C7.01497303,27.5097644 6.88802117,27.3658856 6.8203125,27.3320312 C5.94009977,25.8424405 5.09375406,24.4205797 4.28125,23.0664062 C3.46874594,21.7122328 2.77474246,20.3326893 2.19921875,18.9277344 C1.62369504,17.5227794 1.18359527,16.0586014 0.87890625,14.5351562 C0.574217227,13.0117111 0.472655742,11.3359466 0.57421875,9.5078125 C0.709636094,8.15363906 1.00585709,6.93490125 1.46289062,5.8515625 C1.91992416,4.76822375 2.46158541,3.84570693 3.08789062,3.08398437 C3.71419584,2.32226182 4.41666277,1.72981982 5.1953125,1.30664062 C5.97396223,0.883461426 6.75260027,0.671875 7.53125,0.671875 C8.71615176,0.671875 9.6725224,0.968095996 10.4003906,1.56054687 C11.1282588,2.15299775 11.7207008,2.88085506 12.1777344,3.74414062 C12.6347679,4.60742619 12.9902331,5.55533338 13.2441406,6.58789062 C13.4980481,7.62044787 13.7265615,8.59374543 13.9296875,9.5078125 C14.0989592,10.3203166 14.225911,11.0989546 14.3105469,11.84375 C14.3951827,12.5885454 14.4036462,13.4010373 14.3359375,14.28125 C14.3359375,14.585939 14.1582049,14.7975254 13.8027344,14.9160156 C13.4472638,15.0345058 13.0664083,15.09375 12.6601562,15.09375 C12.4570302,15.09375 12.2285169,15.1022135 11.9746094,15.1191406 C11.7207019,15.1360678 11.4921885,15.1360678 11.2890625,15.1191406 C11.0859365,15.1022135 10.9251308,15.0260423 10.8066406,14.890625 C10.6881504,14.7552077 10.6289062,14.5351578 10.6289062,14.2304687 C10.6627606,14.0950514 10.6966144,13.9427092 10.7304688,13.7734375 C10.7643231,13.6041658 10.8828115,13.5195312 11.0859375,13.5195312 L12.8125,13.5195312 C12.8463543,12.6393185 12.7617198,11.5729229 12.5585938,10.3203125 C12.3554677,9.06770207 12.0253929,7.86589117 11.5683594,6.71484375 C11.1113258,5.56379633 10.5273473,4.57357186 9.81640625,3.74414062 C9.1054652,2.91470939 8.27604641,2.5 7.328125,2.5 C6.4817666,2.5 5.74544584,2.75390371 5.11914062,3.26171875 C4.49283541,3.76953379 3.97656453,4.40429307 3.5703125,5.16601562 C3.16406047,5.92773818 2.85937602,6.74023006 2.65625,7.60351562 C2.45312398,8.46680119 2.33463559,9.22004887 2.30078125,9.86328125 C2.16536391,11.9283957 2.39387725,13.8749909 2.98632812,15.703125 C3.578779,17.5312591 4.33202668,19.3001217 5.24609375,21.0097656 C6.16016082,22.7194096 7.15038529,24.412101 8.21679688,26.0878906 C9.28320846,27.7636803 10.2226522,29.4648351 11.0351562,31.1914062 C11.0690106,31.2929693 11.187499,31.5891903 11.390625,32.0800781 C11.593751,32.570966 11.8222644,33.1210907 12.0761719,33.7304688 C12.3300794,34.3398468 12.5755196,34.9407522 12.8125,35.5332031 L13.3710938,36.9296875 C13.6419284,37.7083372 13.8789052,38.5885368 14.0820312,39.5703125 C14.2851573,40.5520882 14.3528649,41.4153609 14.2851562,42.1601562 C14.1835932,43.9882904 13.6927127,45.4355415 12.8125,46.5019531 C11.9322873,47.5683647 10.5104265,48.0846356 8.546875,48.0507812 L8.08984375,48.0507812 C6.43098129,48.0169269 5.12760891,47.7545597 4.1796875,47.2636719 C3.23176609,46.772784 2.49544533,46.087244 1.97070312,45.2070312 C1.44596092,44.3268185 1.07356881,43.243496 0.853515625,41.9570312 C0.633462441,40.6705665 0.421876016,39.197925 0.21875,37.5390625 L0.21875,35.5585938 C0.21875,35.1184874 0.227213457,34.703778 0.244140625,34.3144531 C0.261067793,33.9251283 0.26953125,33.679688 0.26953125,33.578125 Z M19.183176,39.4179688 C18.878487,38.4023387 18.7007544,37.2766989 18.6499729,36.0410156 C18.5991914,34.8053324 18.5568741,33.6458387 18.5230198,32.5625 C18.3537481,32.359374 18.2014059,32.156251 18.0659885,31.953125 C17.9305712,31.749999 17.8628635,31.5130222 17.8628635,31.2421875 C17.8290092,31.0052071 17.8459361,30.835938 17.9136448,30.734375 C17.9813535,30.632812 18.1506226,30.4973967 18.4214573,30.328125 C18.692292,27.1458174 19.2762705,24.3105593 20.1734104,21.8222656 C21.0705503,19.3339719 22.5178015,17.2265711 24.5152073,15.5 C24.9214593,15.296874 25.3446322,15.1699221 25.7847385,15.1191406 C26.2248449,15.0683591 26.6818716,15.0429688 27.1558323,15.0429688 C28.0698994,15.0429688 28.8739278,15.288409 29.5679417,15.7792969 C30.2619556,16.2701847 30.8713245,16.9303344 31.3960667,17.7597656 C31.9208089,18.5891969 32.3524452,19.5117137 32.6909885,20.5273438 C33.0295319,21.5429738 33.3003625,22.5670521 33.5034885,23.5996094 C33.7066146,24.6321666 33.8589568,25.6223911 33.9605198,26.5703125 C34.0620828,27.5182339 34.1297905,28.3137989 34.1636448,28.9570312 C34.1636448,29.0924486 34.1721082,29.3124985 34.1890354,29.6171875 C34.2059626,29.9218765 34.214426,30.2519513 34.214426,30.6074219 C34.214426,30.9628924 34.2228895,31.2929672 34.2398167,31.5976563 C34.2567438,31.9023453 34.2652073,32.1054682 34.2652073,32.2070312 C34.1974986,32.3424486 34.0113026,32.460937 33.7066135,32.5625 C33.4019245,32.664063 33.0633862,32.757161 32.6909885,32.8417969 C32.3185908,32.9264327 31.9715891,32.9856769 31.6499729,33.0195312 C31.3283567,33.0533856 31.0998434,33.0703125 30.964426,33.0703125 C30.6935914,33.0703125 30.4142973,33.0364587 30.1265354,32.96875 C29.8387736,32.9010413 29.5594795,32.8671875 29.2886448,32.8671875 C28.5099951,32.8671875 27.7652108,32.9010413 27.0542698,32.96875 C26.3433287,33.0364587 25.6154714,33.0703125 24.870676,33.0703125 C24.3290067,33.1041668 23.8042723,33.0872399 23.2964573,33.0195312 C22.7886423,32.9518226 22.2808348,32.9179688 21.7730198,32.9179688 L20.3511448,32.9179688 C20.2157274,32.9856774 20.1480198,33.0533851 20.1480198,33.1210938 L20.1480198,33.3242188 C20.1141655,34.8138095 20.2072635,36.2356703 20.4273167,37.5898438 C20.6473698,38.9440172 20.9605178,40.1796819 21.3667698,41.296875 C21.7730218,42.4140681 22.2808292,43.3958291 22.8902073,44.2421875 C23.4995853,45.0885459 24.159735,45.7656225 24.870676,46.2734375 C25.1753651,46.4765635 25.581611,46.5950519 26.089426,46.6289062 C26.5972411,46.6627606 27.0373408,46.6796875 27.4097385,46.6796875 C28.3576599,46.6796875 29.1532249,46.4681011 29.7964573,46.0449219 C30.4396897,45.6217427 30.964424,45.0800814 31.370676,44.4199219 C31.7769281,43.7597623 32.0562222,43.0234416 32.2085667,42.2109375 C32.3609112,41.3984334 32.4201554,40.5859416 32.386301,39.7734375 C32.386301,39.6718745 32.3693741,39.5110688 32.3355198,39.2910156 C32.3016655,39.0709624 32.2847385,38.9440106 32.2847385,38.9101562 L32.0816135,38.7070312 C31.9123419,38.7408856 31.6584382,38.7324221 31.3198948,38.6816406 C30.9813514,38.6308591 30.7274477,38.5885418 30.558176,38.5546875 C30.5243217,38.5546875 30.4058333,38.5039068 30.2027073,38.4023438 C29.9995813,38.3007807 29.847239,38.2161462 29.745676,38.1484375 L29.542551,37.9453125 L29.542551,37.84375 C29.4748424,37.335935 29.6610384,36.9635429 30.1011448,36.7265625 C30.2365621,36.7265625 30.3889044,36.7434894 30.558176,36.7773438 C30.7274477,36.8111981 30.8797899,36.828125 31.0152073,36.828125 C31.1506246,36.828125 31.379138,36.8196615 31.7007542,36.8027344 C32.0223704,36.7858072 32.3524452,36.7942707 32.6909885,36.828125 C33.0295319,36.8619793 33.3342164,36.9466139 33.605051,37.0820312 C33.8758857,37.2174486 34.028228,37.4205716 34.0620823,37.6914062 C34.0959366,37.7929693 34.1128635,38.0130191 34.1128635,38.3515625 L34.1128635,39.0117188 C34.1467179,39.7903685 34.0790102,40.4335912 33.9097385,40.9414062 C33.7404669,41.4492213 33.5881246,42.0416633 33.4527073,42.71875 C33.4527073,42.7864587 33.4357804,42.9049471 33.401926,43.0742188 C33.3680717,43.2434904 33.3342179,43.4296865 33.3003635,43.6328125 C33.2665092,43.8359385 33.2326554,44.030598 33.198801,44.2167969 C33.1649467,44.4029957 33.1480198,44.5130207 33.1480198,44.546875 C33.0464568,44.8177097 32.8941146,45.0377596 32.6909885,45.2070312 C32.4878625,45.3763029 32.3185934,45.562499 32.183176,45.765625 C31.6076523,46.5442747 31.0067469,47.1113263 30.3804417,47.4667969 C29.7541365,47.8222674 28.9331811,48 27.917551,48 C26.6310863,48 25.5816176,47.8815116 24.7691135,47.6445312 C23.9566095,47.4075509 23.2710695,47.0351588 22.7124729,46.5273438 C22.1538764,46.0195287 21.6799228,45.3932329 21.2905979,44.6484375 C20.9012731,43.9036421 20.5034906,43.0234426 20.0972385,42.0078125 C19.8602582,41.8046865 19.690989,41.4915386 19.589426,41.0683594 C19.487863,40.6451802 19.3524477,40.0950555 19.183176,39.4179688 Z M20.2495823,31.0898438 C21.2990667,31.2591154 22.3400719,31.3776038 23.3726292,31.4453125 C24.4051864,31.5130212 25.4631185,31.5299481 26.5464573,31.4960938 C27.528233,31.4960938 28.3999691,31.4876303 29.1616917,31.4707031 C29.9234142,31.453776 30.8120772,31.3606779 31.8277073,31.1914062 C31.895416,31.1914062 32.0646851,31.1321621 32.3355198,31.0136719 C32.6063545,30.8951817 32.7586967,30.7513029 32.792551,30.5820312 L32.8433323,26.1640625 C32.7079149,25.9609365 32.6317438,25.8085943 32.6148167,25.7070312 C32.5978895,25.6054682 32.5978895,25.5123702 32.6148167,25.4277344 C32.6317438,25.3430985 32.6486707,25.2415371 32.6655979,25.1230469 C32.6825251,25.0045567 32.6571347,24.8098972 32.589426,24.5390625 C32.4201544,23.9296845 32.191641,23.1764368 31.9038792,22.2792969 C31.6161173,21.382157 31.2521887,20.5188844 30.8120823,19.6894531 C30.3719759,18.8600219 29.855705,18.1490915 29.2632542,17.5566406 C28.6708033,16.9641897 28.0021902,16.6679688 27.2573948,16.6679688 C26.275619,16.6679688 25.4546637,16.9387994 24.7945042,17.4804688 C24.1343446,18.0221381 23.567293,18.7161416 23.0933323,19.5625 C22.5855173,20.4427127 22.1538809,21.373693 21.7984104,22.3554688 C21.4429399,23.3372445 21.1467189,24.327469 20.9097385,25.3261719 C20.6727582,26.3248748 20.503489,27.3235627 20.401926,28.3222656 C20.300363,29.3209685 20.2495823,30.2434854 20.2495823,31.0898438 Z M39.8741646,36.0664062 C39.8064559,34.7460871 39.7556752,33.5273493 39.7218208,32.4101562 C39.6879665,31.2929632 39.6710396,30.0234446 39.6710396,28.6015625 C39.8403113,27.9583301 40.094215,27.0358133 40.4327583,25.8339844 C40.7713017,24.6321554 41.1521573,23.3964907 41.5753365,22.1269531 C41.9985157,20.8574155 42.4640058,19.680995 42.9718208,18.5976563 C43.4796359,17.5143175 43.9874433,16.7695333 44.4952583,16.3632812 C45.2739081,15.7877575 46.1964249,15.406902 47.2628365,15.2207031 C48.329248,15.0345043 49.3363994,14.9414062 50.2843208,14.9414062 C50.6567185,14.9414062 51.0037203,15.0091139 51.3253365,15.1445312 C51.6469526,15.2799486 51.9601006,15.4238274 52.2647896,15.5761719 C52.5694786,15.7285164 52.8741631,15.8639317 53.1788521,15.9824219 C53.4835411,16.1009121 53.8220794,16.1601562 54.1944771,16.1601562 L54.1944771,16.0078125 C54.1606227,16.0078125 54.1436958,15.906251 54.1436958,15.703125 L54.1436958,15.2460938 C54.1098415,15.0429677 54.1775492,14.8483082 54.3468208,14.6621094 C54.5160925,14.4759105 54.7022886,14.3828125 54.9054146,14.3828125 L55.2608833,14.3828125 C55.3963007,14.3828125 55.4978622,14.4505202 55.5655708,14.5859375 C55.5655708,15.7708393 55.5994247,16.7695272 55.6671333,17.5820312 C55.734842,18.3945353 55.8025497,19.3424425 55.8702583,20.4257812 C55.9041127,20.6627616 55.8279416,20.9674461 55.6417427,21.3398438 C55.4555439,21.7122414 55.2270305,21.8984375 54.9561958,21.8984375 C54.8884872,21.8984375 54.7784622,21.8476568 54.6261177,21.7460938 C54.4737732,21.6445307 54.3637483,21.5598962 54.2960396,21.4921875 C54.2283309,19.833325 53.7459139,18.5976603 52.848774,17.7851562 C51.9516341,16.9726522 50.7413597,16.5664062 49.2179146,16.5664062 C47.8298868,16.5664062 46.704247,16.9049445 45.8409615,17.5820312 C44.9776759,18.259118 44.275209,19.1139271 43.7335396,20.1464844 C43.1918702,21.1790416 42.7517704,22.3046814 42.4132271,23.5234375 C42.0746837,24.7421936 41.7530724,25.8932237 41.4483833,26.9765625 C41.3468203,27.5859405 41.2706492,28.279944 41.2198677,29.0585938 C41.1690862,29.8372435 41.1436958,30.6328084 41.1436958,31.4453125 C41.1436958,32.2578166 41.1521593,33.0533815 41.1690865,33.8320312 C41.1860136,34.610681 41.2283309,35.2877575 41.2960396,35.8632812 C41.2960396,35.9986986 41.3383569,36.2610658 41.4229927,36.6503906 C41.5076285,37.0397155 41.5922631,37.4628883 41.676899,37.9199219 C41.7615348,38.3769554 41.8461694,38.8085917 41.9308052,39.2148438 C42.015441,39.6210958 42.0916122,39.9257802 42.1593208,40.1289062 C42.2947382,40.6705756 42.4978611,41.288408 42.7686958,41.9824219 C43.0395305,42.6764358 43.3865323,43.3365854 43.8097115,43.9628906 C44.2328907,44.5891958 44.7237712,45.1139302 45.2823677,45.5371094 C45.8409642,45.9602886 46.4926504,46.171875 47.2374458,46.171875 C48.1853672,46.171875 49.0740302,45.8671905 49.9034615,45.2578125 C50.7328927,44.6484345 51.4861404,43.8951868 52.1632271,42.9980469 C52.8403138,42.100907 53.4327558,41.1614632 53.9405708,40.1796875 C54.4483859,39.1979118 54.8546318,38.3346391 55.1593208,37.5898438 C55.1931752,37.5221351 55.2862732,37.445964 55.4386177,37.3613281 C55.5909622,37.2766923 55.6840602,37.2174481 55.7179146,37.1835938 L55.8194771,37.1835938 C56.1918748,37.1835938 56.4119247,37.3528629 56.4796333,37.6914062 C56.547342,38.0299496 56.5981227,38.3346341 56.6319771,38.6054688 C56.6658314,39.1132838 56.547343,39.5449201 56.2765083,39.9003906 C56.0056736,40.2558612 55.7686968,40.6197898 55.5655708,40.9921875 C55.1254645,41.7369829 54.634584,42.5156209 54.0929146,43.328125 C53.5512452,44.1406291 52.9334128,44.8938767 52.239399,45.5878906 C51.5453851,46.2819045 50.7836739,46.8574196 49.9542427,47.3144531 C49.1248115,47.7714867 48.2192216,48 47.2374458,48 C45.9171267,48 44.8084139,47.5345099 43.911274,46.6035156 C43.0141341,45.6725214 42.2693498,44.572272 41.676899,43.3027344 C41.0844481,42.0331968 40.6443483,40.7213609 40.3565865,39.3671875 C40.0688246,38.0130141 39.9080189,36.9127646 39.8741646,36.0664062 Z M61.9870281,46.375 C61.9870281,46.3411457 61.9785647,46.2649746 61.9616375,46.1464844 C61.9447103,46.0279942 61.9362469,45.8925789 61.9362469,45.7402344 L61.9362469,44.2929688 C61.9362469,43.819008 61.9531738,43.4889332 61.9870281,43.3027344 C62.0208825,43.1165355 62.0208825,42.7864607 61.9870281,42.3125 C61.9531738,41.6015589 61.9362469,40.7298229 61.9362469,39.6972656 C61.9362469,38.6647084 61.9447103,37.5898493 61.9616375,36.4726562 C61.9785647,35.3554632 61.9954916,34.2721407 62.0124187,33.2226562 C62.0293459,32.1731718 62.0378094,31.2929723 62.0378094,30.5820312 L62.0378094,20.9589844 C62.0378094,20.1972618 62.0293459,19.4101603 62.0124187,18.5976562 C61.9954916,17.7851522 61.9701012,16.8880257 61.9362469,15.90625 C62.0039555,15.6354153 62.1562978,15.4322923 62.3932781,15.296875 C62.6302585,15.1614577 62.8503084,15.09375 63.0534344,15.09375 C63.1549974,15.09375 63.2988761,15.1191404 63.485075,15.1699219 C63.6712738,15.2207034 63.7643719,15.3307283 63.7643719,15.5 L63.9167156,19.4609375 C63.95057,19.4609375 64.0690584,19.3763029 64.2721844,19.2070312 C64.4753104,19.0377596 64.5937988,18.9361981 64.6276531,18.9023438 C64.8984878,18.7330721 65.160855,18.5214856 65.4147625,18.2675781 L66.1510906,17.53125 C66.8281773,17.023435 67.5560346,16.5833352 68.3346844,16.2109375 C69.1133341,15.8385398 69.7734837,15.5677092 70.3151531,15.3984375 L73.0065594,15.09375 C74.2253155,15.09375 75.2578572,15.4153614 76.1042156,16.0585938 L77.6784344,17.7851562 C78.1862494,18.6315146 78.5501781,19.5794218 78.7702312,20.6289062 C78.9902844,21.6783907 79.1003094,22.6940055 79.1003094,23.6757812 C79.1003094,24.1835963 78.9479671,24.4798173 78.6432781,24.5644531 C78.3385891,24.649089 77.9154162,24.7252601 77.3737469,24.7929688 L76.0026531,24.7421875 C75.9010901,24.7760418 75.8079921,24.7337246 75.7233562,24.6152344 C75.6387204,24.4967442 75.5879397,24.3613289 75.5710125,24.2089844 C75.5540853,24.0566399 75.5794757,23.9042976 75.6471844,23.7519531 C75.714893,23.5996086 75.8333814,23.4895837 76.0026531,23.421875 L77.5768719,23.421875 C77.6107262,22.91406 77.6022628,22.4824237 77.5514812,22.1269531 C77.5006997,21.7714826 77.3906748,21.3567732 77.2214031,20.8828125 L76.6120281,19.4609375 C76.4427564,19.1562485 76.1803893,18.758466 75.8249187,18.2675781 C75.4694482,17.7766903 75.1563003,17.4296885 74.8854656,17.2265625 L72.1940594,16.8203125 C71.550827,16.8203125 70.8145062,17.0065086 69.985075,17.3789062 C69.1556438,17.7513039 68.4531768,18.0559884 67.8776531,18.2929688 L65.6432781,20.3242188 C65.6094238,20.3580731 65.5247892,20.468098 65.3893719,20.6542969 C65.2539545,20.8404957 65.1016123,21.0351552 64.9323406,21.2382812 C64.7630689,21.4414073 64.6107267,21.6360668 64.4753094,21.8222656 C64.339892,22.0084645 64.2552575,22.1184894 64.2214031,22.1523438 L63.8151531,22.5585938 C63.6458814,23.4388065 63.5781738,24.3613233 63.6120281,25.3261719 C63.6458825,26.2910204 63.6628094,27.1796834 63.6628094,27.9921875 C63.6628094,28.8046916 63.6458825,29.7441353 63.6120281,30.8105469 C63.5781738,31.8769585 63.5527834,32.9687444 63.5358562,34.0859375 C63.5189291,35.2031306 63.5020022,36.2864531 63.485075,37.3359375 C63.4681478,38.3854219 63.4766113,39.3164022 63.5104656,40.1289062 C63.54432,41.1783907 63.5697103,42.202469 63.5866375,43.2011719 C63.6035647,44.1998748 63.6120281,45.2239531 63.6120281,46.2734375 C63.6120281,46.4088548 63.6035647,46.6542951 63.5866375,47.0097656 C63.5697103,47.3652362 63.5612469,47.5937495 63.5612469,47.6953125 C63.5612469,47.7630212 63.4766123,47.8053385 63.3073406,47.8222656 C63.1380689,47.8391928 62.9603363,47.8391928 62.7741375,47.8222656 C62.5879386,47.8053385 62.4102061,47.7884115 62.2409344,47.7714844 C62.0716627,47.7545572 61.9701012,47.7460938 61.9362469,47.7460938 C61.8008295,47.7460938 61.7331219,47.695313 61.7331219,47.59375 C61.7331219,47.492187 61.7500488,47.3736986 61.7839031,47.2382812 C61.8177575,47.1028639 61.8600747,46.9589851 61.9108562,46.8066406 C61.9616378,46.6542961 61.9870281,46.5104173 61.9870281,46.375 Z M83.8967667,39.4179688 C83.5920776,38.4023387 83.414345,37.2766989 83.3635635,36.0410156 C83.312782,34.8053324 83.2704647,33.6458387 83.2366104,32.5625 C83.0673387,32.359374 82.9149965,32.156251 82.7795792,31.953125 C82.6441618,31.749999 82.5764542,31.5130222 82.5764542,31.2421875 C82.5425998,31.0052071 82.5595267,30.835938 82.6272354,30.734375 C82.6949441,30.632812 82.8642132,30.4973967 83.1350479,30.328125 C83.4058826,27.1458174 83.9898611,24.3105593 84.887001,21.8222656 C85.7841409,19.3339719 87.2313921,17.2265711 89.2287979,15.5 C89.6350499,15.296874 90.0582228,15.1699221 90.4983292,15.1191406 C90.9384355,15.0683591 91.3954622,15.0429688 91.8694229,15.0429688 C92.78349,15.0429688 93.5875184,15.288409 94.2815323,15.7792969 C94.9755462,16.2701847 95.5849151,16.9303344 96.1096573,17.7597656 C96.6343995,18.5891969 97.0660358,19.5117137 97.4045792,20.5273438 C97.7431225,21.5429738 98.0139531,22.5670521 98.2170792,23.5996094 C98.4202052,24.6321666 98.5725474,25.6223911 98.6741104,26.5703125 C98.7756734,27.5182339 98.8433811,28.3137989 98.8772354,28.9570312 C98.8772354,29.0924486 98.8856989,29.3124985 98.902626,29.6171875 C98.9195532,29.9218765 98.9280167,30.2519513 98.9280167,30.6074219 C98.9280167,30.9628924 98.9364801,31.2929672 98.9534073,31.5976563 C98.9703345,31.9023453 98.9787979,32.1054682 98.9787979,32.2070312 C98.9110892,32.3424486 98.7248932,32.460937 98.4202042,32.5625 C98.1155151,32.664063 97.7769769,32.757161 97.4045792,32.8417969 C97.0321815,32.9264327 96.6851797,32.9856769 96.3635635,33.0195312 C96.0419473,33.0533856 95.813434,33.0703125 95.6780167,33.0703125 C95.407182,33.0703125 95.1278879,33.0364587 94.840126,32.96875 C94.5523642,32.9010413 94.2730701,32.8671875 94.0022354,32.8671875 C93.2235857,32.8671875 92.4788015,32.9010413 91.7678604,32.96875 C91.0569194,33.0364587 90.3290621,33.0703125 89.5842667,33.0703125 C89.0425973,33.1041668 88.517863,33.0872399 88.0100479,33.0195312 C87.5022329,32.9518226 86.9944255,32.9179688 86.4866104,32.9179688 L85.0647354,32.9179688 C84.9293181,32.9856774 84.8616104,33.0533851 84.8616104,33.1210938 L84.8616104,33.3242188 C84.8277561,34.8138095 84.9208541,36.2356703 85.1409073,37.5898438 C85.3609605,38.9440172 85.6741084,40.1796819 86.0803604,41.296875 C86.4866124,42.4140681 86.9944199,43.3958291 87.6037979,44.2421875 C88.213176,45.0885459 88.8733256,45.7656225 89.5842667,46.2734375 C89.8889557,46.4765635 90.2952016,46.5950519 90.8030167,46.6289062 C91.3108317,46.6627606 91.7509315,46.6796875 92.1233292,46.6796875 C93.0712506,46.6796875 93.8668155,46.4681011 94.5100479,46.0449219 C95.1532803,45.6217427 95.6780146,45.0800814 96.0842667,44.4199219 C96.4905187,43.7597623 96.7698128,43.0234416 96.9221573,42.2109375 C97.0745018,41.3984334 97.133746,40.5859416 97.0998917,39.7734375 C97.0998917,39.6718745 97.0829647,39.5110688 97.0491104,39.2910156 C97.0152561,39.0709624 96.9983292,38.9440106 96.9983292,38.9101562 L96.7952042,38.7070312 C96.6259325,38.7408856 96.3720288,38.7324221 96.0334854,38.6816406 C95.6949421,38.6308591 95.4410383,38.5885418 95.2717667,38.5546875 C95.2379123,38.5546875 95.1194239,38.5039068 94.9162979,38.4023438 C94.7131719,38.3007807 94.5608297,38.2161462 94.4592667,38.1484375 L94.2561417,37.9453125 L94.2561417,37.84375 C94.188433,37.335935 94.374629,36.9635429 94.8147354,36.7265625 C94.9501528,36.7265625 95.102495,36.7434894 95.2717667,36.7773438 C95.4410383,36.8111981 95.5933806,36.828125 95.7287979,36.828125 C95.8642153,36.828125 96.0927286,36.8196615 96.4143448,36.8027344 C96.735961,36.7858072 97.0660358,36.7942707 97.4045792,36.828125 C97.7431225,36.8619793 98.047807,36.9466139 98.3186417,37.0820312 C98.5894764,37.2174486 98.7418186,37.4205716 98.7756729,37.6914062 C98.8095272,37.7929693 98.8264542,38.0130191 98.8264542,38.3515625 L98.8264542,39.0117188 C98.8603085,39.7903685 98.7926008,40.4335912 98.6233292,40.9414062 C98.4540575,41.4492213 98.3017153,42.0416633 98.1662979,42.71875 C98.1662979,42.7864587 98.149371,42.9049471 98.1155167,43.0742188 C98.0816623,43.2434904 98.0478085,43.4296865 98.0139542,43.6328125 C97.9800998,43.8359385 97.946246,44.030598 97.9123917,44.2167969 C97.8785373,44.4029957 97.8616104,44.5130207 97.8616104,44.546875 C97.7600474,44.8177097 97.6077052,45.0377596 97.4045792,45.2070312 C97.2014531,45.3763029 97.032184,45.562499 96.8967667,45.765625 C96.321243,46.5442747 95.7203375,47.1113263 95.0940323,47.4667969 C94.4677271,47.8222674 93.6467717,48 92.6311417,48 C91.3446769,48 90.2952082,47.8815116 89.4827042,47.6445312 C88.6702001,47.4075509 87.9846601,47.0351588 87.4260635,46.5273438 C86.867467,46.0195287 86.3935134,45.3932329 86.0041885,44.6484375 C85.6148637,43.9036421 85.2170812,43.0234426 84.8108292,42.0078125 C84.5738488,41.8046865 84.4045797,41.4915386 84.3030167,41.0683594 C84.2014537,40.6451802 84.0660383,40.0950555 83.8967667,39.4179688 Z M84.9631729,31.0898438 C86.0126573,31.2591154 87.0536625,31.3776038 88.0862198,31.4453125 C89.118777,31.5130212 90.1767092,31.5299481 91.2600479,31.4960938 C92.2418237,31.4960938 93.1135597,31.4876303 93.8752823,31.4707031 C94.6370048,31.453776 95.5256678,31.3606779 96.5412979,31.1914062 C96.6090066,31.1914062 96.7782757,31.1321621 97.0491104,31.0136719 C97.3199451,30.8951817 97.4722873,30.7513029 97.5061417,30.5820312 L97.5569229,26.1640625 C97.4215056,25.9609365 97.3453345,25.8085943 97.3284073,25.7070312 C97.3114801,25.6054682 97.3114801,25.5123702 97.3284073,25.4277344 C97.3453345,25.3430985 97.3622614,25.2415371 97.3791885,25.1230469 C97.3961157,25.0045567 97.3707253,24.8098972 97.3030167,24.5390625 C97.133745,23.9296845 96.9052316,23.1764368 96.6174698,22.2792969 C96.3297079,21.382157 95.9657793,20.5188844 95.5256729,19.6894531 C95.0855665,18.8600219 94.5692957,18.1490915 93.9768448,17.5566406 C93.3843939,16.9641897 92.7157808,16.6679688 91.9709854,16.6679688 C90.9892097,16.6679688 90.1682543,16.9387994 89.5080948,17.4804688 C88.8479352,18.0221381 88.2808836,18.7161416 87.8069229,19.5625 C87.2991079,20.4427127 86.8674716,21.373693 86.512001,22.3554688 C86.1565305,23.3372445 85.8603095,24.327469 85.6233292,25.3261719 C85.3863488,26.3248748 85.2170797,27.3235627 85.1155167,28.3222656 C85.0139537,29.3209685 84.9631729,30.2434854 84.9631729,31.0898438 Z M105.60338,22.203125 L105.755724,15.09375 C105.755724,14.9244783 105.628772,14.7975265 105.374865,14.7128906 C105.120957,14.6282548 104.909371,14.5690106 104.740099,14.5351562 L101.54088,14.28125 C101.439317,14.28125 101.380073,14.188152 101.363146,14.0019531 C101.346219,13.8157543 101.337755,13.6718755 101.337755,13.5703125 C101.337755,13.2656235 101.405463,13.0455736 101.54088,12.9101562 C101.608589,12.9101562 101.71015,12.9016928 101.845568,12.8847656 C101.980985,12.8678385 102.082547,12.859375 102.150255,12.859375 L104.435411,12.9609375 C104.536974,12.9609375 104.714707,12.9440106 104.968615,12.9101562 C105.222522,12.8763019 105.484889,12.8255212 105.755724,12.7578125 C105.688015,10.692698 105.704942,8.72917598 105.806505,6.8671875 C105.908068,5.00519902 105.958849,3.04167699 105.958849,0.9765625 C105.89114,0.671873477 105.950384,0.443360137 106.136583,0.291015625 C106.322782,0.138671113 106.525905,0.054036543 106.745958,0.037109375 C106.966012,0.020182207 107.177598,0.0624994922 107.380724,0.1640625 C107.58385,0.265625508 107.685411,0.434894648 107.685411,0.671875 C107.685411,2.70313516 107.651558,4.61587645 107.583849,6.41015625 C107.51614,8.20443605 107.482286,10.1171773 107.482286,12.1484375 L107.482286,12.7070312 L107.685411,12.9101562 L112.204943,12.859375 C112.475777,12.859375 112.6789,13.0117172 112.814318,13.3164062 C112.949735,13.6210953 112.983589,13.874999 112.91588,14.078125 C112.848172,14.3151054 112.602731,14.4674476 112.179552,14.5351562 C111.756373,14.6028649 111.392444,14.6367188 111.087755,14.6367188 L108.44713,14.6367188 L107.685411,14.6875 C107.685411,14.7552087 107.668485,15.1106739 107.63463,15.7539062 C107.600776,16.3971386 107.558459,17.1165325 107.507677,17.9121094 C107.456896,18.7076863 107.414578,19.4609339 107.380724,20.171875 C107.34687,20.8828161 107.329943,21.3229158 107.329943,21.4921875 L107.329943,25.65625 C107.329943,25.9270847 107.321479,26.5703074 107.304552,27.5859375 C107.287625,28.6015676 107.270698,29.701817 107.253771,30.8867188 C107.236844,32.0716205 107.219917,33.1803334 107.20299,34.2128906 C107.186062,35.2454479 107.177599,35.8971341 107.177599,36.1679688 C107.245308,37.0143271 107.262235,38.0384054 107.22838,39.2402344 C107.194526,40.4420633 107.245307,41.5169223 107.380724,42.4648438 L107.939318,44.6484375 L109.564318,46.171875 C110.918491,46.4427097 111.99335,46.4511731 112.788927,46.1972656 C113.584504,45.9433581 114.202336,45.5625025 114.642443,45.0546875 C115.082549,44.5468725 115.412624,43.9628939 115.632677,43.3027344 C115.85273,42.6425748 116.064317,42.0416694 116.267443,41.5 C116.436714,41.0598936 116.57213,40.492842 116.673693,39.7988281 C116.775256,39.1048142 116.851427,38.3938838 116.902208,37.6660156 C116.95299,36.9381474 116.986844,36.227217 117.003771,35.5332031 C117.020698,34.8391892 117.012235,34.2552107 116.97838,33.78125 C116.97838,33.5104153 116.95299,33.3411462 116.902208,33.2734375 C116.851427,33.2057288 116.758329,33.1803385 116.622911,33.1972656 C116.487494,33.2141928 116.292835,33.2480466 116.038927,33.2988281 C115.78502,33.3496096 115.438018,33.3580731 114.997911,33.3242188 L114.54088,32.8671875 C114.54088,32.4609355 114.600124,32.156251 114.718615,31.953125 C114.837105,31.749999 114.99791,31.6230471 115.201036,31.5722656 C115.404162,31.5214841 115.624212,31.5045572 115.861193,31.5214844 C116.098173,31.5384115 116.33515,31.546875 116.57213,31.546875 L118.146349,31.5976562 L118.552599,32.2070312 C118.552599,32.2408856 118.561062,32.359374 118.57799,32.5625 C118.594917,32.765626 118.60338,32.9179682 118.60338,33.0195312 C118.60338,35.6601695 118.434111,38.0976451 118.095568,40.3320312 C117.757024,42.5664174 116.876825,44.614574 115.454943,46.4765625 C114.980982,47.0859405 114.456248,47.4414057 113.880724,47.5429688 C113.3052,47.6445318 112.746612,47.7630202 112.204943,47.8984375 C111.426293,48.1015635 110.656118,48.1184904 109.894396,47.9492188 C109.132673,47.7799471 108.447133,47.4837261 107.837755,47.0605469 C107.228377,46.6373677 106.729033,46.1126333 106.339708,45.4863281 C105.950383,44.8600229 105.755724,44.1744829 105.755724,43.4296875 L105.501818,39.875 L105.451036,30.7851562 L105.60338,22.203125 Z M139.063482,33.578125 L139.063482,32.8417969 C139.063482,32.6894524 139.148117,32.5963543 139.317389,32.5625 C139.418952,32.5625 139.613611,32.5540365 139.901373,32.5371094 C140.189135,32.5201822 140.502283,32.4947918 140.840826,32.4609375 C141.179369,32.4270832 141.500981,32.4016928 141.80567,32.3847656 C142.110359,32.3678385 142.313482,32.359375 142.415045,32.359375 C142.787442,32.359375 142.948248,32.4863269 142.897467,32.7402344 C142.846685,32.9941419 142.804368,33.3242167 142.770514,33.7304688 C142.601242,33.7981774 142.431973,33.8404947 142.262701,33.8574219 C142.093429,33.874349 141.92416,33.8828125 141.754889,33.8828125 C141.585617,33.8828125 141.407884,33.9166663 141.221685,33.984375 C141.035487,34.0520837 140.840827,34.1705721 140.637701,34.3398438 L140.333014,36.828125 C140.400722,36.929688 140.451503,37.0820302 140.485357,37.2851562 C140.519212,37.4882823 140.536139,37.6998687 140.536139,37.9199219 L140.536139,38.9609375 C140.739265,40.2135479 140.959314,41.2968704 141.196295,42.2109375 C141.433275,43.1250046 141.76335,43.9036426 142.186529,44.546875 C142.609708,45.1901074 143.17676,45.6894513 143.887701,46.0449219 C144.598642,46.4003924 145.563476,46.6458327 146.782232,46.78125 L147.340826,46.78125 C147.848641,46.78125 148.347985,46.688152 148.838873,46.5019531 C149.329761,46.3157543 149.769861,46.0533871 150.159185,45.7148438 C150.54851,45.3763004 150.870122,44.9785179 151.124029,44.5214844 C151.377937,44.0644508 151.521815,43.5651069 151.55567,43.0234375 C151.691087,41.7369727 151.623379,40.4843811 151.352545,39.265625 C151.08171,38.0468689 150.709318,36.845058 150.235357,35.6601562 C149.761397,34.4752545 149.211272,33.3072974 148.584967,32.15625 C147.958661,31.0052026 147.340829,29.8710993 146.731451,28.7539062 C146.731451,28.7200519 146.68067,28.6438808 146.579107,28.5253906 C146.477544,28.4069004 146.409837,28.3476562 146.375982,28.3476562 C146.308274,28.2122389 146.181322,28.0175794 145.995123,27.7636719 C145.808924,27.5097644 145.681972,27.3658856 145.614264,27.3320312 C144.734051,25.8424405 143.887705,24.4205797 143.075201,23.0664062 C142.262697,21.7122328 141.568693,20.3326893 140.99317,18.9277344 C140.417646,17.5227794 139.977546,16.0586014 139.672857,14.5351562 C139.368168,13.0117111 139.266607,11.3359466 139.36817,9.5078125 C139.503587,8.15363906 139.799808,6.93490125 140.256842,5.8515625 C140.713875,4.76822375 141.255536,3.84570693 141.881842,3.08398437 C142.508147,2.32226182 143.210614,1.72981982 143.989264,1.30664062 C144.767913,0.883461426 145.546551,0.671875 146.325201,0.671875 C147.510103,0.671875 148.466473,0.968095996 149.194342,1.56054687 C149.92221,2.15299775 150.514652,2.88085506 150.971685,3.74414062 C151.428719,4.60742619 151.784184,5.55533338 152.038092,6.58789062 C152.291999,7.62044787 152.520513,8.59374543 152.723639,9.5078125 C152.89291,10.3203166 153.019862,11.0989546 153.104498,11.84375 C153.189134,12.5885454 153.197597,13.4010373 153.129889,14.28125 C153.129889,14.585939 152.952156,14.7975254 152.596685,14.9160156 C152.241215,15.0345058 151.860359,15.09375 151.454107,15.09375 C151.250981,15.09375 151.022468,15.1022135 150.76856,15.1191406 C150.514653,15.1360678 150.28614,15.1360678 150.083014,15.1191406 C149.879888,15.1022135 149.719082,15.0260423 149.600592,14.890625 C149.482101,14.7552077 149.422857,14.5351578 149.422857,14.2304687 C149.456712,14.0950514 149.490565,13.9427092 149.52442,13.7734375 C149.558274,13.6041658 149.676763,13.5195312 149.879889,13.5195312 L151.606451,13.5195312 C151.640305,12.6393185 151.555671,11.5729229 151.352545,10.3203125 C151.149419,9.06770207 150.819344,7.86589117 150.36231,6.71484375 C149.905277,5.56379633 149.321298,4.57357186 148.610357,3.74414062 C147.899416,2.91470939 147.069997,2.5 146.122076,2.5 C145.275718,2.5 144.539397,2.75390371 143.913092,3.26171875 C143.286786,3.76953379 142.770516,4.40429307 142.364264,5.16601562 C141.958012,5.92773818 141.653327,6.74023006 141.450201,7.60351562 C141.247075,8.46680119 141.128587,9.22004887 141.094732,9.86328125 C140.959315,11.9283957 141.187828,13.8749909 141.780279,15.703125 C142.37273,17.5312591 143.125978,19.3001217 144.040045,21.0097656 C144.954112,22.7194096 145.944336,24.412101 147.010748,26.0878906 C148.077159,27.7636803 149.016603,29.4648351 149.829107,31.1914062 C149.862962,31.2929693 149.98145,31.5891903 150.184576,32.0800781 C150.387702,32.570966 150.616215,33.1210907 150.870123,33.7304688 C151.12403,34.3398468 151.369471,34.9407522 151.606451,35.5332031 L152.165045,36.9296875 C152.435879,37.7083372 152.672856,38.5885368 152.875982,39.5703125 C153.079108,40.5520882 153.146816,41.4153609 153.079107,42.1601562 C152.977544,43.9882904 152.486664,45.4355415 151.606451,46.5019531 C150.726238,47.5683647 149.304378,48.0846356 147.340826,48.0507812 L146.883795,48.0507812 C145.224932,48.0169269 143.92156,47.7545597 142.973639,47.2636719 C142.025717,46.772784 141.289396,46.087244 140.764654,45.2070312 C140.239912,44.3268185 139.86752,43.243496 139.647467,41.9570312 C139.427413,40.6705665 139.215827,39.197925 139.012701,37.5390625 L139.012701,35.5585938 C139.012701,35.1184874 139.021164,34.703778 139.038092,34.3144531 C139.055019,33.9251283 139.063482,33.679688 139.063482,33.578125 Z M158.180252,37.6914062 C158.112543,37.1497369 158.044836,36.5572949 157.977127,35.9140625 C157.909418,35.2708301 157.850174,34.6191439 157.799393,33.9589844 C157.748611,33.2988248 157.706294,32.6471386 157.67244,32.0039062 C157.638585,31.3606739 157.638585,30.7682319 157.67244,30.2265625 C157.67244,29.9557278 157.69783,29.5494819 157.748611,29.0078125 C157.799393,28.4661431 157.850174,27.8990915 157.900955,27.3066406 C157.951737,26.7141897 158.010981,26.1386747 158.07869,25.5800781 C158.146398,25.0214816 158.231033,24.5898453 158.332596,24.2851562 C158.603431,23.3033805 158.891188,22.2623753 159.195877,21.1621094 C159.500566,20.0618435 159.915275,19.0546921 160.440018,18.140625 C160.96476,17.2265579 161.6503,16.4563833 162.496658,15.8300781 C163.343017,15.2037729 164.443266,14.8567712 165.79744,14.7890625 C166.508381,14.7552082 167.14314,14.8652331 167.701736,15.1191406 C168.260333,15.3730481 168.759677,15.6946595 169.199783,16.0839844 C169.63989,16.4733092 170.046136,16.8795552 170.418533,17.3027344 C170.790931,17.7259136 171.146396,18.0898422 171.48494,18.3945312 C171.620357,18.1575509 171.679601,17.8274761 171.662674,17.4042969 C171.645747,16.9811177 171.645747,16.5748717 171.662674,16.1855469 C171.679601,15.796222 171.755772,15.4576837 171.89119,15.1699219 C172.026607,14.88216 172.297438,14.7213543 172.70369,14.6875 L172.805252,14.6875 L173.313065,15.0683594 C173.380773,15.1191409 173.431554,15.2460927 173.465408,15.4492187 L173.465408,18.3945312 L173.313065,21.8476562 L173.51619,27.0273438 L173.566971,34.3398438 C173.566971,34.5429698 173.583898,34.898435 173.617752,35.40625 C173.651606,35.914065 173.68546,36.4303359 173.719315,36.9550781 C173.753169,37.4798203 173.778559,37.9453105 173.795486,38.3515625 C173.812414,38.7578145 173.820877,38.9778644 173.820877,39.0117188 L173.92244,43.9375 C173.956294,44.1744804 173.956294,44.4199206 173.92244,44.6738281 C173.888585,44.9277356 173.880122,45.156249 173.897049,45.359375 C173.913976,45.562501 173.990147,45.7402336 174.125565,45.8925781 C174.260982,46.0449226 174.531813,46.1210938 174.938065,46.1210938 C175.107336,46.1210938 175.268142,46.1295572 175.420486,46.1464844 C175.572831,46.1634115 175.733637,46.1380212 175.902908,46.0703125 C176.139889,46.1041668 176.351475,46.2226552 176.537674,46.4257812 C176.723873,46.6289073 176.833898,46.8320302 176.867752,47.0351562 C176.901606,47.2382823 176.850826,47.4414052 176.715408,47.6445312 C176.579991,47.8476573 176.444576,47.9999995 176.309158,48.1015625 C176.24145,48.1015625 176.122961,48.110026 175.95369,48.1269531 C175.784418,48.1438803 175.665929,48.1523438 175.598221,48.1523438 L174.988846,48.1523438 C174.718011,48.1523438 174.430254,48.1438803 174.125565,48.1269531 C173.820876,48.110026 173.550045,48.0761721 173.313065,48.0253906 C173.076084,47.9746091 172.923742,47.9153649 172.856033,47.8476562 C172.415927,47.2044239 172.229731,46.5188838 172.29744,45.7910156 C172.365148,45.0631474 172.331294,44.3437536 172.195877,43.6328125 C172.128168,43.4296865 172.094315,43.125002 172.094315,42.71875 C172.094315,42.312498 172.102778,41.8893251 172.119705,41.4492188 C172.136632,41.0091124 172.153559,40.6113299 172.170486,40.2558594 C172.187414,39.9003888 172.195877,39.6888024 172.195877,39.6210938 C172.162023,39.5533851 172.145096,39.3587256 172.145096,39.0371094 C172.145096,38.7154932 172.153559,38.360028 172.170486,37.9707031 C172.187414,37.5813783 172.195877,37.2259131 172.195877,36.9042969 L172.195877,36.3203125 C172.06046,36.3203125 171.975825,36.3033856 171.941971,36.2695312 C171.908116,36.2356769 171.857336,36.3033846 171.789627,36.4726562 C171.688064,37.352869 171.510331,38.4615819 171.256424,39.7988281 C171.002516,41.1360744 170.613197,42.4225199 170.088455,43.6582031 C169.563713,44.8938864 168.886636,45.9687454 168.057205,46.8828125 C167.227774,47.7968796 166.186769,48.2877601 164.934158,48.3554688 C164.155509,48.3893231 163.478432,48.1777367 162.902908,47.7207031 C162.327385,47.2636696 161.734943,46.7981795 161.125565,46.3242188 C160.719313,46.0195297 160.34692,45.4863319 160.008377,44.7246094 C159.669834,43.9628868 159.373613,43.133468 159.119705,42.2363281 C158.865798,41.3391882 158.654211,40.4759156 158.48494,39.6464844 C158.315668,38.8170531 158.214106,38.165367 158.180252,37.6914062 Z M162.699783,45.4101562 C163.13989,45.8164083 163.520745,46.1380196 163.842361,46.375 C164.163978,46.6119804 164.612541,46.6627611 165.188065,46.5273438 C165.865151,46.4934894 166.491447,46.1295608 167.066971,45.4355469 C167.642495,44.741533 168.158765,43.8613335 168.615799,42.7949219 C169.072832,41.7285103 169.470615,40.5520898 169.809158,39.265625 C170.147702,37.9791602 170.435459,36.7181051 170.67244,35.4824219 C170.90942,34.2467386 171.095616,33.1041719 171.231033,32.0546875 C171.366451,31.0052031 171.468012,30.1927112 171.535721,29.6171875 C171.535721,29.5494788 171.544184,29.3802097 171.561111,29.109375 C171.578039,28.8385403 171.594966,28.5507828 171.611893,28.2460938 C171.62882,27.9414047 171.645747,27.6621106 171.662674,27.4082031 C171.679601,27.1542956 171.688065,26.9934899 171.688065,26.9257812 C171.688065,26.8580726 171.704991,26.7480476 171.738846,26.5957031 C171.7727,26.4433586 171.806554,26.3502606 171.840408,26.3164062 L171.383377,21.4414062 C171.349523,21.4075519 171.315669,21.3567712 171.281815,21.2890625 C171.24796,21.2213538 171.214106,21.1705731 171.180252,21.1367188 C171.146398,21.1028644 171.129471,21.0690106 171.129471,21.0351562 C171.061762,20.9335932 170.93481,20.7558606 170.748611,20.5019531 C170.562413,20.2480456 170.452388,20.1041668 170.418533,20.0703125 C170.046136,19.6302061 169.716061,19.1901064 169.428299,18.75 C169.140537,18.3098936 168.827389,17.9290381 168.488846,17.6074219 C168.150302,17.2858057 167.786374,17.0234385 167.397049,16.8203125 C167.007724,16.6171865 166.525307,16.5325519 165.949783,16.5664062 C164.900299,16.6341149 164.037026,16.9303359 163.35994,17.4550781 C162.682853,17.9798203 162.124265,18.6061162 161.684158,19.3339844 C161.244052,20.0618526 160.888587,20.8235637 160.617752,21.6191406 C160.346917,22.4147175 160.109941,23.0833306 159.906815,23.625 C159.87296,23.6588543 159.839106,23.726562 159.805252,23.828125 C159.771398,23.929688 159.754471,23.9973957 159.754471,24.03125 C159.551345,25.0130257 159.415929,26.0455675 159.348221,27.1289062 C159.280512,28.212245 159.246658,29.3124944 159.246658,30.4296875 C159.246658,31.5468806 159.272049,32.6555935 159.32283,33.7558594 C159.373612,34.8561253 159.449783,35.9140574 159.551346,36.9296875 C159.619054,37.6067742 159.703689,38.2161431 159.805252,38.7578125 C159.906815,39.2994819 160.04223,39.8326797 160.211502,40.3574219 C160.380774,40.8821641 160.575433,41.4068984 160.795486,41.9316406 C161.01554,42.4563828 161.26098,43.0234345 161.531815,43.6328125 C161.531815,43.6666668 161.574132,43.7851552 161.658768,43.9882812 C161.743404,44.1914073 161.844965,44.3945302 161.963455,44.5976562 C162.081945,44.8007823 162.208897,44.9869783 162.344315,45.15625 C162.479732,45.3255217 162.59822,45.4101562 162.699783,45.4101562 Z M182.476709,48 C182.476709,47.9322913 182.468246,47.7799491 182.451319,47.5429688 C182.434392,47.3059884 182.425928,47.1536462 182.425928,47.0859375 C182.392074,45.7656184 182.375147,44.4960998 182.375147,43.2773438 C182.375147,42.0585877 182.409001,40.8567768 182.476709,39.671875 C182.375146,39.3333316 182.341293,38.969403 182.375147,38.5800781 C182.409001,38.1907533 182.409001,37.8606784 182.375147,37.5898438 C182.375147,36.811194 182.366683,36.1171905 182.349756,35.5078125 C182.332829,34.8984345 182.324366,34.1875041 182.324366,33.375 L182.324366,32.0546875 C182.324366,31.7499985 182.315902,31.445314 182.298975,31.140625 C182.282048,30.835936 182.273584,30.632813 182.273584,30.53125 C182.23973,30.4973957 182.188949,30.3704438 182.121241,30.1503906 C182.053532,29.9303374 182.019678,29.7864587 182.019678,29.71875 L182.019678,29.515625 C182.019678,29.4479163 182.036605,29.2532568 182.070459,28.9316406 C182.104314,28.6100244 182.146631,28.2545592 182.197412,27.8652344 C182.248194,27.4759095 182.298975,27.1204443 182.349756,26.7988281 C182.400538,26.4772119 182.425928,26.2656255 182.425928,26.1640625 L182.425928,25.7578125 C182.425928,25.6562495 182.417465,25.4108092 182.400537,25.0214844 C182.38361,24.6321595 182.375147,24.2259136 182.375147,23.8027344 L182.375147,21.8476562 L182.324366,16.4648438 C182.256657,16.4648438 182.188949,16.4479168 182.121241,16.4140625 L181.918116,16.3125 L181.054834,16.3125 C180.885563,16.3125 180.817855,16.1516943 180.851709,15.8300781 C180.885564,15.5084619 180.885564,15.2630217 180.851709,15.09375 L183.086084,14.9921875 C183.119939,14.9921875 183.255354,14.983724 183.492334,14.9667969 C183.729315,14.9498697 183.86473,15.0260408 183.898584,15.1953125 C183.932439,15.3984385 183.940902,15.8131479 183.923975,16.4394531 C183.907048,17.0657583 183.890121,17.7428349 183.873194,18.4707031 C183.856267,19.1985713 183.83934,19.8756479 183.822412,20.5019531 C183.805485,21.1282583 183.813949,21.5260408 183.847803,21.6953125 C183.74624,21.8984385 183.678532,22.0846346 183.644678,22.2539062 C183.610824,22.4231779 183.60236,22.5670567 183.619287,22.6855469 C183.636215,22.8040371 183.695459,22.8802082 183.797022,22.9140625 C184.270983,22.4401018 184.744936,21.8391963 185.218897,21.1113281 C185.692858,20.3834599 186.132957,19.7487006 186.539209,19.2070312 C186.877753,18.8007792 187.334779,18.3606795 187.910303,17.8867188 C188.485827,17.412758 189.103659,16.9811217 189.763819,16.5917969 C190.423978,16.202472 191.092591,15.8723972 191.769678,15.6015625 C192.446765,15.3307278 193.073061,15.1953125 193.648584,15.1953125 C193.817856,15.1953125 194.054833,15.203776 194.359522,15.2207031 C194.664211,15.2376303 194.977359,15.2714841 195.298975,15.3222656 C195.620591,15.3730471 195.925276,15.4576817 196.213037,15.5761719 C196.500799,15.6946621 196.712386,15.8385408 196.847803,16.0078125 C197.355618,16.6171905 197.761864,17.3281209 198.066553,18.140625 C198.371242,18.9531291 198.608219,19.7994748 198.777491,20.6796875 C198.946762,21.5599002 199.073714,22.4316363 199.15835,23.2949219 C199.242986,24.1582074 199.285303,24.9453089 199.285303,25.65625 C199.319157,26.8750061 199.302231,28.076817 199.234522,29.2617188 C199.166813,30.4466205 199.149886,31.6484314 199.183741,32.8671875 C199.217595,34.830739 199.242985,36.8788956 199.259912,39.0117188 C199.27684,41.1445419 199.251449,43.1926985 199.183741,45.15625 C199.217595,45.2239587 199.259912,45.359374 199.310694,45.5625 C199.361475,45.765626 199.386866,45.9010413 199.386866,45.96875 L199.589991,46.171875 L200.504053,46.375 C200.707179,46.375 200.859521,46.5019519 200.961084,46.7558594 C201.062647,47.0097669 201.113428,47.2044264 201.113428,47.3398438 C201.147282,47.6106784 201.121892,47.7714841 201.037256,47.8222656 C200.95262,47.8730471 200.757961,47.8984375 200.453272,47.8984375 L200.199366,47.8984375 C200.131657,47.8984375 199.970851,47.9153644 199.716944,47.9492188 C199.463036,47.9830731 199.302231,48 199.234522,48 C198.963687,47.898437 198.743637,47.8561197 198.574366,47.8730469 C198.405094,47.889974 198.261215,47.8730471 198.142725,47.8222656 C198.024235,47.7714841 197.9396,47.6445323 197.888819,47.4414062 C197.838037,47.2382802 197.812647,46.882815 197.812647,46.375 C197.778793,45.6302046 197.778793,44.8938838 197.812647,44.1660156 C197.846501,43.4381474 197.846501,42.7018266 197.812647,41.9570312 C197.778793,40.6367121 197.770329,39.4941454 197.787256,38.5292969 C197.804183,37.5644483 197.79572,36.4218816 197.761866,35.1015625 C197.761866,34.9661452 197.753402,34.7376318 197.736475,34.4160156 C197.719548,34.0943994 197.711084,33.7473977 197.711084,33.375 L197.711084,31.6484375 C197.744939,31.5468745 197.761866,31.3352881 197.761866,31.0136719 L197.761866,29.9726562 C197.761866,29.6002586 197.753402,29.2532568 197.736475,28.9316406 C197.719548,28.6100244 197.711084,28.398438 197.711084,28.296875 L197.711084,27.5605469 C197.711084,27.171222 197.702621,26.7480492 197.685694,26.2910156 C197.668767,25.8339821 197.65184,25.4108092 197.634912,25.0214844 C197.617985,24.6321595 197.609522,24.3867193 197.609522,24.2851562 C197.575668,23.9466129 197.516423,23.3795613 197.431787,22.5839844 C197.347152,21.7884075 197.203273,20.9759156 197.000147,20.1464844 C196.797021,19.3170531 196.534654,18.5807324 196.213037,17.9375 C195.891421,17.2942676 195.493639,16.9726562 195.019678,16.9726562 L191.972803,16.9726562 C191.938949,16.9726562 191.82046,17.023437 191.617334,17.125 C191.414208,17.226563 191.261866,17.3111976 191.160303,17.3789062 C190.381653,17.8867213 189.68765,18.3606749 189.078272,18.8007812 C188.468894,19.2408876 187.910306,19.8502565 187.402491,20.6289062 C187.199365,20.9335953 186.920071,21.3398412 186.5646,21.8476562 C186.209129,22.3554713 185.853664,22.8463518 185.498194,23.3203125 C185.142723,23.7942732 184.838039,24.2174461 184.584131,24.5898438 L184.203272,25.1484375 L183.847803,25.3515625 L183.822412,26.7734375 C183.805485,27.7213589 183.797022,28.8639256 183.797022,30.2011719 C183.797022,31.5384181 183.805485,32.9179616 183.822412,34.3398438 C183.83934,35.7617259 183.86473,36.9466098 183.898584,37.8945312 L183.898584,38.7578125 C183.898584,39.2317732 183.907048,39.7480441 183.923975,40.3066406 C183.940902,40.8652372 183.957829,41.381508 183.974756,41.8554688 C183.991683,42.3294295 184.000147,42.617187 184.000147,42.71875 C184.000147,42.921876 183.991683,43.2858047 183.974756,43.8105469 C183.957829,44.3352891 183.940902,44.8938772 183.923975,45.4863281 C183.907048,46.078779 183.898584,46.6289037 183.898584,47.1367188 L183.898584,48.203125 L182.90835,48.203125 C182.756005,48.203125 182.612127,48.1354173 182.476709,48 Z M205.960667,22.203125 L206.11301,15.09375 C206.11301,14.9244783 205.986059,14.7975265 205.732151,14.7128906 C205.478244,14.6282548 205.266657,14.5690106 205.097385,14.5351562 L201.898167,14.28125 C201.796604,14.28125 201.737359,14.188152 201.720432,14.0019531 C201.703505,13.8157543 201.695042,13.6718755 201.695042,13.5703125 C201.695042,13.2656235 201.762749,13.0455736 201.898167,12.9101562 C201.965875,12.9101562 202.067437,12.9016928 202.202854,12.8847656 C202.338272,12.8678385 202.439833,12.859375 202.507542,12.859375 L204.792698,12.9609375 C204.894261,12.9609375 205.071994,12.9440106 205.325901,12.9101562 C205.579809,12.8763019 205.842176,12.8255212 206.11301,12.7578125 C206.045302,10.692698 206.062229,8.72917598 206.163792,6.8671875 C206.265355,5.00519902 206.316135,3.04167699 206.316135,0.9765625 C206.248427,0.671873477 206.307671,0.443360137 206.49387,0.291015625 C206.680069,0.138671113 206.883192,0.054036543 207.103245,0.037109375 C207.323298,0.020182207 207.534884,0.0624994922 207.73801,0.1640625 C207.941136,0.265625508 208.042698,0.434894648 208.042698,0.671875 C208.042698,2.70313516 208.008844,4.61587645 207.941135,6.41015625 C207.873427,8.20443605 207.839573,10.1171773 207.839573,12.1484375 L207.839573,12.7070312 L208.042698,12.9101562 L212.562229,12.859375 C212.833064,12.859375 213.036187,13.0117172 213.171604,13.3164062 C213.307022,13.6210953 213.340875,13.874999 213.273167,14.078125 C213.205458,14.3151054 212.960018,14.4674476 212.536839,14.5351562 C212.113659,14.6028649 211.749731,14.6367188 211.445042,14.6367188 L208.804417,14.6367188 L208.042698,14.6875 C208.042698,14.7552087 208.025771,15.1106739 207.991917,15.7539062 C207.958062,16.3971386 207.915745,17.1165325 207.864964,17.9121094 C207.814182,18.7076863 207.771865,19.4609339 207.73801,20.171875 C207.704156,20.8828161 207.687229,21.3229158 207.687229,21.4921875 L207.687229,25.65625 C207.687229,25.9270847 207.678766,26.5703074 207.661839,27.5859375 C207.644911,28.6015676 207.627984,29.701817 207.611057,30.8867188 C207.59413,32.0716205 207.577203,33.1803334 207.560276,34.2128906 C207.543349,35.2454479 207.534885,35.8971341 207.534885,36.1679688 C207.602594,37.0143271 207.619521,38.0384054 207.585667,39.2402344 C207.551812,40.4420633 207.602593,41.5169223 207.73801,42.4648438 L208.296604,44.6484375 L209.921604,46.171875 C211.275778,46.4427097 212.350637,46.4511731 213.146214,46.1972656 C213.94179,45.9433581 214.559623,45.5625025 214.999729,45.0546875 C215.439836,44.5468725 215.76991,43.9628939 215.989964,43.3027344 C216.210017,42.6425748 216.421603,42.0416694 216.624729,41.5 C216.794001,41.0598936 216.929416,40.492842 217.030979,39.7988281 C217.132542,39.1048142 217.208713,38.3938838 217.259495,37.6660156 C217.310276,36.9381474 217.34413,36.227217 217.361057,35.5332031 C217.377984,34.8391892 217.369521,34.2552107 217.335667,33.78125 C217.335667,33.5104153 217.310276,33.3411462 217.259495,33.2734375 C217.208713,33.2057288 217.115615,33.1803385 216.980198,33.1972656 C216.844781,33.2141928 216.650121,33.2480466 216.396214,33.2988281 C216.142306,33.3496096 215.795304,33.3580731 215.355198,33.3242188 L214.898167,32.8671875 C214.898167,32.4609355 214.957411,32.156251 215.075901,31.953125 C215.194391,31.749999 215.355197,31.6230471 215.558323,31.5722656 C215.761449,31.5214841 215.981499,31.5045572 216.218479,31.5214844 C216.45546,31.5384115 216.692436,31.546875 216.929417,31.546875 L218.503635,31.5976562 L218.909885,32.2070312 C218.909885,32.2408856 218.918349,32.359374 218.935276,32.5625 C218.952203,32.765626 218.960667,32.9179682 218.960667,33.0195312 C218.960667,35.6601695 218.791398,38.0976451 218.452854,40.3320312 C218.114311,42.5664174 217.234111,44.614574 215.812229,46.4765625 C215.338268,47.0859405 214.813534,47.4414057 214.23801,47.5429688 C213.662487,47.6445318 213.103899,47.7630202 212.562229,47.8984375 C211.783579,48.1015635 211.013405,48.1184904 210.251682,47.9492188 C209.48996,47.7799471 208.80442,47.4837261 208.195042,47.0605469 C207.585664,46.6373677 207.08632,46.1126333 206.696995,45.4863281 C206.30767,44.8600229 206.11301,44.1744829 206.11301,43.4296875 L205.859104,39.875 L205.808323,30.7851562 L205.960667,22.203125 Z M224.112593,37.6914062 C224.044884,37.1497369 223.977176,36.5572949 223.909468,35.9140625 C223.841759,35.2708301 223.782515,34.6191439 223.731733,33.9589844 C223.680952,33.2988248 223.638635,32.6471386 223.60478,32.0039062 C223.570926,31.3606739 223.570926,30.7682319 223.60478,30.2265625 C223.60478,29.9557278 223.630171,29.5494819 223.680952,29.0078125 C223.731734,28.4661431 223.782514,27.8990915 223.833296,27.3066406 C223.884077,26.7141897 223.943322,26.1386747 224.01103,25.5800781 C224.078739,25.0214816 224.163373,24.5898453 224.264936,24.2851562 C224.535771,23.3033805 224.823529,22.2623753 225.128218,21.1621094 C225.432907,20.0618435 225.847616,19.0546921 226.372358,18.140625 C226.897101,17.2265579 227.582641,16.4563833 228.428999,15.8300781 C229.275357,15.2037729 230.375607,14.8567712 231.72978,14.7890625 C232.440721,14.7552082 233.075481,14.8652331 233.634077,15.1191406 C234.192674,15.3730481 234.692018,15.6946595 235.132124,16.0839844 C235.57223,16.4733092 235.978476,16.8795552 236.350874,17.3027344 C236.723272,17.7259136 237.078737,18.0898422 237.41728,18.3945312 C237.552698,18.1575509 237.611942,17.8274761 237.595015,17.4042969 C237.578087,16.9811177 237.578087,16.5748717 237.595015,16.1855469 C237.611942,15.796222 237.688113,15.4576837 237.82353,15.1699219 C237.958948,14.88216 238.229778,14.7213543 238.63603,14.6875 L238.737593,14.6875 L239.245405,15.0683594 C239.313114,15.1191409 239.363895,15.2460927 239.397749,15.4492187 L239.397749,18.3945312 L239.245405,21.8476562 L239.44853,27.0273438 L239.499311,34.3398438 C239.499311,34.5429698 239.516238,34.898435 239.550093,35.40625 C239.583947,35.914065 239.617801,36.4303359 239.651655,36.9550781 C239.68551,37.4798203 239.7109,37.9453105 239.727827,38.3515625 C239.744754,38.7578145 239.753218,38.9778644 239.753218,39.0117188 L239.85478,43.9375 C239.888635,44.1744804 239.888635,44.4199206 239.85478,44.6738281 C239.820926,44.9277356 239.812462,45.156249 239.82939,45.359375 C239.846317,45.562501 239.922488,45.7402336 240.057905,45.8925781 C240.193323,46.0449226 240.464153,46.1210938 240.870405,46.1210938 C241.039677,46.1210938 241.200483,46.1295572 241.352827,46.1464844 C241.505172,46.1634115 241.665977,46.1380212 241.835249,46.0703125 C242.072229,46.1041668 242.283816,46.2226552 242.470015,46.4257812 C242.656213,46.6289073 242.766238,46.8320302 242.800093,47.0351562 C242.833947,47.2382823 242.783166,47.4414052 242.647749,47.6445312 C242.512332,47.8476573 242.376916,47.9999995 242.241499,48.1015625 C242.17379,48.1015625 242.055302,48.110026 241.88603,48.1269531 C241.716759,48.1438803 241.59827,48.1523438 241.530561,48.1523438 L240.921186,48.1523438 C240.650352,48.1523438 240.362594,48.1438803 240.057905,48.1269531 C239.753216,48.110026 239.482386,48.0761721 239.245405,48.0253906 C239.008425,47.9746091 238.856083,47.9153649 238.788374,47.8476562 C238.348268,47.2044239 238.162072,46.5188838 238.22978,45.7910156 C238.297489,45.0631474 238.263635,44.3437536 238.128218,43.6328125 C238.060509,43.4296865 238.026655,43.125002 238.026655,42.71875 C238.026655,42.312498 238.035119,41.8893251 238.052046,41.4492188 C238.068973,41.0091124 238.0859,40.6113299 238.102827,40.2558594 C238.119754,39.9003888 238.128218,39.6888024 238.128218,39.6210938 C238.094363,39.5533851 238.077436,39.3587256 238.077436,39.0371094 C238.077436,38.7154932 238.0859,38.360028 238.102827,37.9707031 C238.119754,37.5813783 238.128218,37.2259131 238.128218,36.9042969 L238.128218,36.3203125 C237.9928,36.3203125 237.908166,36.3033856 237.874311,36.2695312 C237.840457,36.2356769 237.789676,36.3033846 237.721968,36.4726562 C237.620405,37.352869 237.442672,38.4615819 237.188765,39.7988281 C236.934857,41.1360744 236.545538,42.4225199 236.020796,43.6582031 C235.496054,44.8938864 234.818977,45.9687454 233.989546,46.8828125 C233.160115,47.7968796 232.119109,48.2877601 230.866499,48.3554688 C230.087849,48.3893231 229.410773,48.1777367 228.835249,47.7207031 C228.259725,47.2636696 227.667283,46.7981795 227.057905,46.3242188 C226.651653,46.0195297 226.279261,45.4863319 225.940718,44.7246094 C225.602174,43.9628868 225.305953,43.133468 225.052046,42.2363281 C224.798138,41.3391882 224.586552,40.4759156 224.41728,39.6464844 C224.248009,38.8170531 224.146447,38.165367 224.112593,37.6914062 Z M228.632124,45.4101562 C229.07223,45.8164083 229.453086,46.1380196 229.774702,46.375 C230.096318,46.6119804 230.544881,46.6627611 231.120405,46.5273438 C231.797492,46.4934894 232.423788,46.1295608 232.999311,45.4355469 C233.574835,44.741533 234.091106,43.8613335 234.54814,42.7949219 C235.005173,41.7285103 235.402956,40.5520898 235.741499,39.265625 C236.080042,37.9791602 236.3678,36.7181051 236.60478,35.4824219 C236.841761,34.2467386 237.027957,33.1041719 237.163374,32.0546875 C237.298791,31.0052031 237.400353,30.1927112 237.468061,29.6171875 C237.468061,29.5494788 237.476525,29.3802097 237.493452,29.109375 C237.510379,28.8385403 237.527306,28.5507828 237.544233,28.2460938 C237.56116,27.9414047 237.578087,27.6621106 237.595015,27.4082031 C237.611942,27.1542956 237.620405,26.9934899 237.620405,26.9257812 C237.620405,26.8580726 237.637332,26.7480476 237.671186,26.5957031 C237.705041,26.4433586 237.738895,26.3502606 237.772749,26.3164062 L237.315718,21.4414062 C237.281863,21.4075519 237.24801,21.3567712 237.214155,21.2890625 C237.180301,21.2213538 237.146447,21.1705731 237.112593,21.1367188 C237.078738,21.1028644 237.061811,21.0690106 237.061811,21.0351562 C236.994103,20.9335932 236.867151,20.7558606 236.680952,20.5019531 C236.494753,20.2480456 236.384728,20.1041668 236.350874,20.0703125 C235.978476,19.6302061 235.648401,19.1901064 235.36064,18.75 C235.072878,18.3098936 234.75973,17.9290381 234.421186,17.6074219 C234.082643,17.2858057 233.718714,17.0234385 233.32939,16.8203125 C232.940065,16.6171865 232.457648,16.5325519 231.882124,16.5664062 C230.83264,16.6341149 229.969367,16.9303359 229.29228,17.4550781 C228.615193,17.9798203 228.056605,18.6061162 227.616499,19.3339844 C227.176393,20.0618526 226.820927,20.8235637 226.550093,21.6191406 C226.279258,22.4147175 226.042281,23.0833306 225.839155,23.625 C225.805301,23.6588543 225.771447,23.726562 225.737593,23.828125 C225.703738,23.929688 225.686811,23.9973957 225.686811,24.03125 C225.483685,25.0130257 225.34827,26.0455675 225.280561,27.1289062 C225.212853,28.212245 225.178999,29.3124944 225.178999,30.4296875 C225.178999,31.5468806 225.204389,32.6555935 225.255171,33.7558594 C225.305952,34.8561253 225.382123,35.9140574 225.483686,36.9296875 C225.551395,37.6067742 225.63603,38.2161431 225.737593,38.7578125 C225.839156,39.2994819 225.974571,39.8326797 226.143843,40.3574219 C226.313114,40.8821641 226.507774,41.4068984 226.727827,41.9316406 C226.94788,42.4563828 227.193321,43.0234345 227.464155,43.6328125 C227.464155,43.6666668 227.506472,43.7851552 227.591108,43.9882812 C227.675744,44.1914073 227.777306,44.3945302 227.895796,44.5976562 C228.014286,44.8007823 228.141238,44.9869783 228.276655,45.15625 C228.412073,45.3255217 228.530561,45.4101562 228.632124,45.4101562 Z" id="Secret-Santa-Copy"></path>
                <path d="M52.872,62.736 C52.9066668,62.7706668 52.9369999,62.7966666 52.963,62.814 C52.9890001,62.8313334 53.002,62.8659997 53.002,62.918 C53.002,63.455336 53.0279997,64.0186637 53.08,64.608 C53.1320003,65.1973363 53.1839997,65.790997 53.236,66.389 C53.2880003,66.987003 53.3356665,67.5806637 53.379,68.17 C53.4223336,68.7593363 53.444,69.3139974 53.444,69.834 C53.5653339,69.6606658 53.7083325,69.4613345 53.873,69.236 C54.0376675,69.0106655 54.2326655,68.8026676 54.458,68.612 C54.6833345,68.4213324 54.930332,68.2610006 55.199,68.131 C55.467668,68.0009994 55.766665,67.9273334 56.096,67.91 C56.2173339,67.7886661 56.3299995,67.728 56.434,67.728 C56.6073342,67.7106666 56.7719992,67.7669993 56.928,67.897 C57.0840008,68.0270006 57.2486658,68.1786658 57.422,68.352 C57.6473345,68.5773345 57.8379992,68.8459984 57.994,69.158 C58.1500008,69.4700016 58.2539997,69.790665 58.306,70.12 C58.3580003,70.449335 58.353667,70.7699984 58.293,71.082 C58.232333,71.3940016 58.0893345,71.6626655 57.864,71.888 C57.6386655,72.54667 57.3266687,73.0969978 56.928,73.539 C56.5293313,73.9810022 56.1046689,74.3146655 55.654,74.54 L54.094,75.32 C53.9899995,75.3720003 53.8903338,75.4369996 53.795,75.515 C53.6996662,75.5930004 53.6000005,75.6579997 53.496,75.71 C53.4093329,75.7446668 53.3443336,75.731667 53.301,75.671 C53.2576665,75.610333 53.1926671,75.5626668 53.106,75.528 C52.897999,75.4413329 52.7680003,75.3113342 52.716,75.138 C52.6639997,74.9819992 52.6293334,74.8520005 52.612,74.748 C52.5946666,74.6439995 52.5686668,74.4966676 52.534,74.306 C52.3433324,73.4566624 52.2090004,72.5206718 52.131,71.498 C52.0529996,70.4753282 52.0096667,69.4570051 52.001,68.443 C51.9923333,67.4289949 52.0009999,66.4496714 52.027,65.505 C52.0530001,64.5603286 52.0833332,63.7413368 52.118,63.048 C52.118,62.8226655 52.1309999,62.6753337 52.157,62.606 C52.1830001,62.5366663 52.2393329,62.4846668 52.326,62.45 C52.3606668,62.4326666 52.4039997,62.4153334 52.456,62.398 C52.5080003,62.3806666 52.5773329,62.3893332 52.664,62.424 C52.7160003,62.4413334 52.7549999,62.480333 52.781,62.541 C52.8070001,62.601667 52.8373332,62.6666663 52.872,62.736 Z M57.422,70.328 C57.422,70.2239995 57.3743338,70.0896675 57.279,69.925 C57.1836662,69.7603325 57.0710007,69.6000008 56.941,69.444 C56.8109994,69.2879992 56.6680008,69.1493339 56.512,69.028 C56.3559992,68.9066661 56.2173339,68.8286668 56.096,68.794 C55.9053324,68.8460003 55.6626681,68.9716657 55.368,69.171 C55.0733319,69.3703343 54.8306676,69.5913321 54.64,69.834 C54.1373308,70.4406697 53.8686668,71.0819966 53.834,71.758 C53.7993332,72.4340034 53.8946655,73.10133 54.12,73.76 C54.2760008,73.7079997 54.4796654,73.6213339 54.731,73.5 C54.9823346,73.3786661 55.2466653,73.2400008 55.524,73.084 C55.8013347,72.9279992 56.0699987,72.7676675 56.33,72.603 C56.5900013,72.4383325 56.8066658,72.2866674 56.98,72.148 C57.1706676,71.9226655 57.2919997,71.675668 57.344,71.407 C57.3960003,71.138332 57.422,70.7786689 57.422,70.328 Z M66.4396661,78.752 C66.3876658,78.960001 66.3356663,79.1376659 66.2836661,79.285 C66.2316658,79.4323341 66.1796663,79.5666661 66.1276661,79.688 C66.0756658,79.8093339 66.0149998,79.9219995 65.9456661,80.026 C65.8763324,80.1300005 65.7983332,80.2599992 65.7116661,80.416 C65.624999,80.4853337 65.5339999,80.6196657 65.4386661,80.819 C65.3433323,81.0183343 65.2090003,81.1526663 65.0356661,81.222 C64.5676637,81.4126676 64.0433357,81.5773326 63.4626661,81.716 C62.8819965,81.8546674 62.4010013,81.8980003 62.0196661,81.846 C61.9849992,81.8286666 61.9459996,81.8243333 61.9026661,81.833 C61.8593325,81.8416667 61.8289995,81.8286668 61.8116661,81.794 C61.724999,81.6206658 61.7466654,81.4776672 61.8766661,81.365 C62.0066667,81.2523328 62.0889992,81.1266674 62.1236661,80.988 C62.1583329,80.9013329 62.1929992,80.8016672 62.2276661,80.689 C62.2623329,80.5763328 62.322999,80.4853337 62.4096661,80.416 C62.5830003,80.3293329 62.8343311,80.2470004 63.1636661,80.169 C63.4930011,80.0909996 63.8179978,79.9826674 64.1386661,79.844 C64.4593344,79.7053326 64.7539981,79.5190012 65.0226661,79.285 C65.2913341,79.0509988 65.468999,78.7260021 65.5556661,78.31 C65.6596666,77.772664 65.7463324,77.1833365 65.8156661,76.542 C65.8849998,75.9006635 65.9413325,75.25067 65.9846661,74.592 C66.0279996,73.93333 66.062666,73.2833365 66.0886661,72.642 C66.1146662,72.0006635 66.1363327,71.4026694 66.1536661,70.848 C66.0496656,71.056001 65.9023337,71.294332 65.7116661,71.563 C65.5209985,71.831668 65.3130005,72.0959987 65.0876661,72.356 C64.8623316,72.6160013 64.6370005,72.849999 64.4116661,73.058 C64.1863316,73.266001 63.9783337,73.4219995 63.7876661,73.526 C63.5623316,73.6473339 63.3803334,73.7643328 63.2416661,73.877 C63.1029987,73.9896672 62.9643334,74.1066661 62.8256661,74.228 C62.7216656,74.3146671 62.5830003,74.3146671 62.4096661,74.228 C62.2363319,74.1413329 62.0803334,73.9853345 61.9416661,73.76 C61.7856653,73.4826653 61.6383334,73.1403354 61.4996661,72.733 C61.3609987,72.3256646 61.2223334,71.8923356 61.0836661,71.433 C60.9449987,70.9736644 60.8063334,70.4970025 60.6676661,70.003 C60.5289987,69.5089975 60.3903334,69.0366689 60.2516661,68.586 C60.1303321,68.256665 60.1389987,68.0226674 60.2776661,67.884 C60.399,67.7626661 60.5376653,67.702 60.6936661,67.702 C60.8323334,67.702 60.914666,67.7409996 60.9406661,67.819 C60.9666662,67.8970004 61.0489987,67.9446666 61.1876661,67.962 C61.309,67.9793334 61.3999991,68.0226663 61.4606661,68.092 C61.5213331,68.1613337 61.594999,68.2219997 61.6816661,68.274 C61.7856666,68.3433337 61.8593325,68.4126663 61.9026661,68.482 C61.9459996,68.5513337 61.9936658,68.6726658 62.0456661,68.846 C62.1323332,69.175335 62.2059991,69.4829986 62.2666661,69.769 C62.3273331,70.0550014 62.3879991,70.3366653 62.4486661,70.614 C62.5093331,70.8913347 62.5786657,71.1729986 62.6566661,71.459 C62.7346665,71.7450014 62.8256656,72.052665 62.9296661,72.382 C63.3976684,72.0699984 63.809331,71.7276685 64.1646661,71.355 C64.5200012,70.9823315 64.8406647,70.6010019 65.1266661,70.211 C65.4126675,69.8209981 65.6683316,69.4396685 65.8936661,69.067 C66.1190005,68.6943315 66.3269985,68.3346684 66.5176661,67.988 C66.5869998,67.8839995 66.6736656,67.7366676 66.7776661,67.546 C66.8816666,67.3553324 66.976999,67.2166671 67.0636661,67.13 C67.1156663,67.0779997 67.1589992,67.021667 67.1936661,66.961 C67.2283329,66.900333 67.2716658,66.8526668 67.3236661,66.818 C67.3929998,66.8873337 67.4363327,66.9653329 67.4536661,67.052 C67.4709995,67.1386671 67.4883327,67.2339995 67.5056661,67.338 C67.5403329,67.6326681 67.5186665,67.9489983 67.4406661,68.287 C67.3626657,68.6250017 67.3236661,68.8719992 67.3236661,69.028 L67.3236661,71.42 C67.3236661,72.2346707 67.2976663,73.0493293 67.2456661,73.864 C67.1936658,74.6786707 67.107,75.4976626 66.9856661,76.321 C66.8643321,77.1443374 66.682334,77.9546627 66.4396661,78.752 Z M80.0289983,70.562 C80.4276669,69.9726637 80.9043288,69.5003351 81.4589983,69.145 C82.0136677,68.7896649 82.6549946,68.6379997 83.3829983,68.69 C83.4869988,68.7073334 83.5996643,68.746333 83.7209983,68.807 L84.0589983,68.976 C84.3189996,69.1146674 84.5616638,69.318332 84.7869983,69.587 C85.0123327,69.855668 85.2159973,70.1589983 85.3979983,70.497 C85.5799992,70.8350017 85.7316643,71.1859982 85.8529983,71.55 C85.9743322,71.9140018 86.060998,72.2519984 86.1129983,72.564 C86.1476651,72.7546676 86.1736648,72.9973319 86.1909983,73.292 C86.2083317,73.5866681 86.2169983,73.8553321 86.2169983,74.098 C86.1823314,74.098 86.1649983,74.1066666 86.1649983,74.124 C86.1649983,74.1413334 86.1476651,74.1413334 86.1129983,74.124 C85.9743309,74.0546663 85.8616654,73.9593339 85.7749983,73.838 C85.7403314,73.8033332 85.6883319,73.7643336 85.6189983,73.721 C85.5496646,73.6776665 85.5063317,73.6213337 85.4889983,73.552 C85.4543314,73.3786658 85.4153318,73.1490014 85.3719983,72.863 C85.3286647,72.5769986 85.2549988,72.269335 85.1509983,71.94 C85.0469977,71.610665 84.916999,71.2856683 84.7609983,70.965 C84.6049975,70.6443317 84.4143327,70.3626679 84.1889983,70.12 C84.1023312,70.0333329 84.0286652,69.9683335 83.9679983,69.925 C83.9073313,69.8816664 83.8336654,69.8340003 83.7469983,69.782 C83.6603312,69.7126663 83.5303325,69.6650001 83.3569983,69.639 C83.1836641,69.6129999 83.0363322,69.6173332 82.9149983,69.652 C82.6203301,69.7386671 82.3083332,69.9033321 81.9789983,70.146 C81.6496633,70.3886679 81.3636661,70.6876649 81.1209983,71.043 C80.8783304,71.3983351 80.7049988,71.8099977 80.6009983,72.278 C80.4969977,72.7460023 80.5403306,73.248664 80.7309983,73.786 C80.7829985,73.9420008 80.8176648,74.0676662 80.8349983,74.163 C80.8523317,74.2583338 80.856665,74.3493329 80.8479983,74.436 C80.8393315,74.5226671 80.8089985,74.6179995 80.7569983,74.722 L80.5489983,75.138 C80.4103309,75.346001 80.2499992,75.4933329 80.0679983,75.58 C79.8859973,75.6666671 79.7256656,75.7619995 79.5869983,75.866 C79.0843291,74.4273261 78.6986663,72.9886739 78.4299983,71.55 C78.1613302,70.1113261 77.9966652,68.7506731 77.9359983,67.468 C77.8753313,66.1853269 77.9143309,65.0110053 78.0529983,63.945 C78.1916656,62.8789947 78.4083301,61.9906702 78.7029983,61.28 C78.7549985,61.071999 78.8676641,60.9853332 79.0409983,61.02 C79.1276654,61.0373334 79.196998,61.0719997 79.2489983,61.124 L79.4569983,61.332 C79.5263319,61.4186671 79.586998,61.492333 79.6389983,61.553 C79.6909985,61.613667 79.7256648,61.6959995 79.7429983,61.8 C79.7603317,61.8866671 79.8036646,61.93 79.8729983,61.93 C79.9423319,61.93 79.9683317,61.9733329 79.9509983,62.06 C79.7949975,63.0133381 79.6909985,63.8973293 79.6389983,64.712 C79.586998,65.5266707 79.5739981,66.2806632 79.5999983,66.974 C79.6259984,67.6673368 79.6823312,68.3086637 79.7689983,68.898 C79.8556654,69.4873363 79.9423312,70.0419974 80.0289983,70.562 Z M94.4026643,67.91 C94.6279988,68.4646694 94.84033,69.0626635 95.0396643,69.704 C95.2389987,70.3453365 95.377664,70.9823302 95.4556643,71.615 C95.5336647,72.2476698 95.5336647,72.8586637 95.4556643,73.448 C95.377664,74.0373363 95.1739993,74.5486645 94.8446643,74.982 C94.705997,75.1553342 94.541332,75.2246668 94.3506643,75.19 C94.2813307,75.1726666 94.2206646,75.1293337 94.1686643,75.06 C94.1166641,74.9906663 94.0473314,74.9300003 93.9606643,74.878 C93.8913307,74.8259997 93.8176647,74.7826668 93.7396643,74.748 C93.661664,74.7133332 93.587998,74.6440005 93.5186643,74.54 C93.258663,74.6266671 93.0029989,74.7523325 92.7516643,74.917 C92.5003298,75.0816675 92.2446656,75.2506658 91.9846643,75.424 C91.724663,75.5973342 91.4559991,75.7663325 91.1786643,75.931 C90.9013296,76.0956675 90.6153325,76.2126663 90.3206643,76.282 C90.0086628,76.3686671 89.7789984,76.3556672 89.6316643,76.243 C89.4843303,76.1303328 89.3239985,76.0046674 89.1506643,75.866 C89.0293304,75.7619995 88.9513312,75.6970001 88.9166643,75.671 C88.8819975,75.6449999 88.8473312,75.5366676 88.8126643,75.346 C88.7606641,74.9646648 88.7563308,74.5530022 88.7996643,74.111 C88.8429979,73.6689978 88.9426636,73.2226689 89.0986643,72.772 C89.5319998,71.4546601 90.415991,70.5706689 91.7506643,70.12 C91.9066651,70.0679997 92.0669969,70.0549999 92.2316643,70.081 C92.3963318,70.1070001 92.5566636,70.1546663 92.7126643,70.224 C92.8686651,70.2933337 93.0203303,70.3799995 93.1676643,70.484 C93.3149984,70.5880005 93.4493304,70.6919995 93.5706643,70.796 L93.9866643,71.134 C94.0733314,70.8393319 94.0689982,70.5230017 93.9736643,70.185 C93.8783305,69.8469983 93.735332,69.5263348 93.5446643,69.223 C93.3539967,68.9196652 93.1373322,68.6466679 92.8946643,68.404 C92.6519965,68.1613321 92.4179988,67.9966671 92.1926643,67.91 C91.3086599,67.91 90.5156679,68.1136646 89.8136643,68.521 C89.1116608,68.9283354 88.4313343,69.46133 87.7726643,70.12 C87.7379975,70.1546668 87.6989979,70.1806666 87.6556643,70.198 C87.6123308,70.2153334 87.5733312,70.2326666 87.5386643,70.25 C87.4866641,70.2846668 87.425998,70.2933334 87.3566643,70.276 C87.3046641,70.2586666 87.2959975,70.2066671 87.3306643,70.12 C87.4346649,69.5653306 87.6426628,69.0670022 87.9546643,68.625 C88.2666659,68.1829978 88.6306623,67.797335 89.0466643,67.468 C89.4626664,67.138665 89.904662,66.8613345 90.3726643,66.636 C90.8406667,66.4106655 91.2999954,66.2460005 91.7506643,66.142 C91.819998,66.1073332 91.8849974,66.0856667 91.9456643,66.077 C92.0063313,66.0683333 92.0799972,66.064 92.1666643,66.064 C92.2879983,66.064 92.4006638,66.0986663 92.5046643,66.168 C92.6086649,66.2373337 92.729997,66.3153329 92.8686643,66.402 C93.0419985,66.4886671 93.2153301,66.5883328 93.3886643,66.701 C93.5619985,66.8136672 93.717997,66.9479992 93.8566643,67.104 C93.9779983,67.2426674 94.0819972,67.3813326 94.1686643,67.52 C94.2553314,67.6586674 94.3333307,67.7886661 94.4026643,67.91 Z M93.5186643,72.538 C93.4146638,72.3126655 93.2543321,72.1046676 93.0376643,71.914 C92.8209966,71.7233324 92.5739991,71.5803338 92.2966643,71.485 C92.0193296,71.3896662 91.7203326,71.3679997 91.3996643,71.42 C91.0789961,71.4720003 90.7539993,71.6279987 90.4246643,71.888 C90.3206638,72.1133345 90.2166649,72.360332 90.1126643,72.629 C90.0086638,72.897668 89.9306646,73.166332 89.8786643,73.435 C89.8266641,73.703668 89.8049976,73.972332 89.8136643,74.241 C89.8223311,74.509668 89.8786638,74.7566655 89.9826643,74.982 C90.6413343,74.7566655 91.2826612,74.4966681 91.9066643,74.202 C92.5306675,73.9073319 93.0679954,73.6473345 93.5186643,73.422 C93.6226649,73.3179995 93.6833309,73.2313337 93.7006643,73.162 C93.7179978,73.0926663 93.7136645,73.0320003 93.6876643,72.98 C93.6616642,72.9279997 93.6269979,72.8673337 93.5836643,72.798 C93.5403308,72.7286663 93.5186643,72.6420005 93.5186643,72.538 Z M104.33033,68.534 C104.243663,68.7940013 104.174331,68.9933326 104.12233,69.132 C104.07033,69.2706674 103.992331,69.2880005 103.88833,69.184 C103.645663,68.9413321 103.350999,68.6813347 103.00433,68.404 C102.657662,68.1266653 102.233,67.9533337 101.73033,67.884 C101.400995,67.8493332 101.049999,67.8883328 100.67733,68.001 C100.304662,68.1136672 100.022998,68.3519982 99.8323304,68.716 C99.6589962,69.0280016 99.6329965,69.4006645 99.7543304,69.834 C99.8583309,70.2846689 100.087995,70.6096657 100.44333,70.809 C100.798666,71.0083343 101.197328,71.1643328 101.63933,71.277 C102.081333,71.3896672 102.531995,71.4893329 102.99133,71.576 C103.450666,71.6626671 103.844995,71.8186655 104.17433,72.044 C104.278331,72.0960003 104.360663,72.1783328 104.42133,72.291 C104.481997,72.4036672 104.546997,72.5033329 104.61633,72.59 C104.702998,72.6940005 104.78533,72.7806663 104.86333,72.85 C104.941331,72.9193337 105.014997,73.0233326 105.08433,73.162 C105.136331,73.2660005 105.196997,73.3916659 105.26633,73.539 C105.335664,73.6863341 105.352997,73.8466658 105.31833,74.02 C105.26633,74.2453345 105.049666,74.4879987 104.66833,74.748 C103.836326,75.285336 102.961002,75.7143317 102.04233,76.035 C101.123659,76.3556683 100.153002,76.412001 99.1303304,76.204 C99.0089965,76.1693332 98.8703312,76.0523343 98.7143304,75.853 C98.5583296,75.6536657 98.4283309,75.5193337 98.3243304,75.45 C98.0469957,75.2939992 97.8563309,75.0946679 97.7523304,74.852 C97.6136631,74.4013311 97.5443304,73.907336 97.5443304,73.37 C97.5443304,73.1966658 97.5746635,73.1143333 97.6353304,73.123 C97.6959974,73.1316667 97.7523302,73.136 97.8043304,73.136 C97.9083309,73.136 98.0253298,73.2053326 98.1553304,73.344 C98.2853311,73.4826674 98.4239964,73.6429991 98.5713304,73.825 C98.7186645,74.0070009 98.8573298,74.1716659 98.9873304,74.319 C99.1173311,74.4663341 99.2256633,74.54 99.3123304,74.54 C99.6069986,74.6786674 99.9623283,74.7566666 100.37833,74.774 C100.794333,74.7913334 101.214662,74.7523338 101.63933,74.657 C102.063999,74.5616662 102.462662,74.4056677 102.83533,74.189 C103.207999,73.9723322 103.506996,73.699335 103.73233,73.37 C103.73233,73.2833329 103.632665,73.1793339 103.43333,73.058 C103.233996,72.9366661 102.978332,72.8023341 102.66633,72.655 C102.354329,72.5076659 102.011999,72.3560008 101.63933,72.2 C101.266662,72.0439992 100.911332,71.8793342 100.57333,71.706 C100.235329,71.5326658 99.940665,71.3506676 99.6893304,71.16 C99.4379958,70.9693324 99.2689975,70.7786676 99.1823304,70.588 C99.1303302,70.4493326 99.0696641,70.3063341 99.0003304,70.159 C98.9309967,70.0116659 98.8876638,69.9033337 98.8703304,69.834 C98.7836633,69.4526648 98.7663302,69.0843351 98.8183304,68.729 C98.8703307,68.3736649 98.9743296,68.0573347 99.1303304,67.78 C99.2863312,67.5026653 99.4943291,67.2730009 99.7543304,67.091 C100.014332,66.9089991 100.308995,66.7920003 100.63833,66.74 C101.158333,66.6706663 101.717327,66.666333 102.31533,66.727 C102.913333,66.787667 103.446328,66.9913316 103.91433,67.338 C104.052998,67.4593339 104.152663,67.5719995 104.21333,67.676 C104.273997,67.7800005 104.321664,67.9013326 104.35633,68.04 C104.373664,68.1266671 104.390997,68.2089996 104.40833,68.287 C104.425664,68.3650004 104.399664,68.4473329 104.33033,68.534 Z M109.655997,70.562 C110.054665,69.9726637 110.531327,69.5003351 111.085997,69.145 C111.640666,68.7896649 112.281993,68.6379997 113.009997,68.69 C113.113997,68.7073334 113.226663,68.746333 113.347997,68.807 L113.685997,68.976 C113.945998,69.1146674 114.188662,69.318332 114.413997,69.587 C114.639331,69.855668 114.842996,70.1589983 115.024997,70.497 C115.206997,70.8350017 115.358663,71.1859982 115.479997,71.55 C115.60133,71.9140018 115.687996,72.2519984 115.739997,72.564 C115.774663,72.7546676 115.800663,72.9973319 115.817997,73.292 C115.83533,73.5866681 115.843997,73.8553321 115.843997,74.098 C115.80933,74.098 115.791997,74.1066666 115.791997,74.124 C115.791997,74.1413334 115.774663,74.1413334 115.739997,74.124 C115.601329,74.0546663 115.488664,73.9593339 115.401997,73.838 C115.36733,73.8033332 115.31533,73.7643336 115.245997,73.721 C115.176663,73.6776665 115.13333,73.6213337 115.115997,73.552 C115.08133,73.3786658 115.04233,73.1490014 114.998997,72.863 C114.955663,72.5769986 114.881997,72.269335 114.777997,71.94 C114.673996,71.610665 114.543997,71.2856683 114.387997,70.965 C114.231996,70.6443317 114.041331,70.3626679 113.815997,70.12 C113.729329,70.0333329 113.655663,69.9683335 113.594997,69.925 C113.53433,69.8816664 113.460664,69.8340003 113.373997,69.782 C113.287329,69.7126663 113.157331,69.6650001 112.983997,69.639 C112.810662,69.6129999 112.66333,69.6173332 112.541997,69.652 C112.247328,69.7386671 111.935331,69.9033321 111.605997,70.146 C111.276662,70.3886679 110.990664,70.6876649 110.747997,71.043 C110.505329,71.3983351 110.331997,71.8099977 110.227997,72.278 C110.123996,72.7460023 110.167329,73.248664 110.357997,73.786 C110.409997,73.9420008 110.444663,74.0676662 110.461997,74.163 C110.47933,74.2583338 110.483663,74.3493329 110.474997,74.436 C110.46633,74.5226671 110.435997,74.6179995 110.383997,74.722 L110.175997,75.138 C110.037329,75.346001 109.876997,75.4933329 109.694997,75.58 C109.512996,75.6666671 109.352664,75.7619995 109.213997,75.866 C108.711327,74.4273261 108.325665,72.9886739 108.056997,71.55 C107.788329,70.1113261 107.623663,68.7506731 107.562997,67.468 C107.50233,66.1853269 107.541329,65.0110053 107.679997,63.945 C107.818664,62.8789947 108.035328,61.9906702 108.329997,61.28 C108.381997,61.071999 108.494662,60.9853332 108.667997,61.02 C108.754664,61.0373334 108.823996,61.0719997 108.875997,61.124 L109.083997,61.332 C109.15333,61.4186671 109.213996,61.492333 109.265997,61.553 C109.317997,61.613667 109.352663,61.6959995 109.369997,61.8 C109.38733,61.8866671 109.430663,61.93 109.499997,61.93 C109.56933,61.93 109.59533,61.9733329 109.577997,62.06 C109.421996,63.0133381 109.317997,63.8973293 109.265997,64.712 C109.213996,65.5266707 109.200996,66.2806632 109.226997,66.974 C109.252997,67.6673368 109.309329,68.3086637 109.395997,68.898 C109.482664,69.4873363 109.569329,70.0419974 109.655997,70.562 Z M131.227329,69.236 C131.279329,69.3226671 131.300995,69.4049996 131.292329,69.483 C131.283662,69.5610004 131.270662,69.6259997 131.253329,69.678 C131.114661,69.8340008 131.001996,69.9379997 130.915329,69.99 C130.828662,70.0420003 130.68133,70.1199995 130.473329,70.224 C130.421328,70.2586668 130.373662,70.2933332 130.330329,70.328 C130.286995,70.3626668 130.239329,70.38 130.187329,70.38 C130.100662,70.38 129.96633,70.3106674 129.784329,70.172 C129.602328,70.0333326 129.40733,69.8946674 129.199329,69.756 C128.991328,69.6173326 128.77033,69.5133337 128.536329,69.444 C128.302328,69.3746663 128.089996,69.4006661 127.899329,69.522 C127.708661,69.7820013 127.526663,70.1156646 127.353329,70.523 C127.179994,70.9303354 127.045662,71.3593311 126.950329,71.81 C126.854995,72.2606689 126.824662,72.7199977 126.859329,73.188 C126.893996,73.6560023 127.032661,74.0893313 127.275329,74.488 C128.280667,74.5920005 129.173325,74.4230022 129.953329,73.981 C130.733333,73.5389978 131.452659,72.98867 132.111329,72.33 C132.111329,72.4513339 132.080996,72.5596662 132.020329,72.655 C131.959662,72.7503338 131.903329,72.8499995 131.851329,72.954 C131.781995,73.1100008 131.708329,73.2616659 131.630329,73.409 C131.552328,73.5563341 131.443996,73.6993326 131.305329,73.838 C131.062661,74.0980013 130.789664,74.3493321 130.486329,74.592 C130.182994,74.8346679 129.86233,75.0469991 129.524329,75.229 C129.186327,75.4110009 128.839664,75.5496662 128.484329,75.645 C128.128994,75.7403338 127.777997,75.7706668 127.431329,75.736 C127.240661,75.7186666 127.106329,75.6710004 127.028329,75.593 C126.950328,75.5149996 126.815996,75.4326671 126.625329,75.346 C126.521328,75.2766663 126.386996,75.2160003 126.222329,75.164 C126.057661,75.1119997 125.931996,75.0426671 125.845329,74.956 C125.671994,74.747999 125.541996,74.4966681 125.455329,74.202 C125.333995,73.8206648 125.273329,73.4046689 125.273329,72.954 C125.273329,72.5033311 125.303662,72.0656688 125.364329,71.641 C125.424996,71.2163312 125.511661,70.8306684 125.624329,70.484 C125.736996,70.1373316 125.836662,69.8686676 125.923329,69.678 C126.027329,69.4526655 126.183328,69.2576675 126.391329,69.093 C126.59933,68.9283325 126.828994,68.7766674 127.080329,68.638 C127.331663,68.4993326 127.587327,68.3693339 127.847329,68.248 C128.10733,68.1266661 128.349994,68.0140005 128.575329,67.91 C129.459333,67.91 130.343324,68.3519956 131.227329,69.236 Z M137.566995,68.066 L137.124995,68.508 C137.263662,68.4906666 137.475993,68.451667 137.761995,68.391 C138.047996,68.330333 138.32966,68.3 138.606995,68.3 C138.814996,68.3346668 138.988327,68.4039995 139.126995,68.508 C139.265662,68.6120005 139.352328,68.8113319 139.386995,69.106 C139.456328,69.5220021 139.564661,69.9423312 139.711995,70.367 C139.859329,70.7916688 139.971994,71.2119979 140.049995,71.628 C140.127995,72.0440021 140.123662,72.4383315 140.036995,72.811 C139.950328,73.1836685 139.71633,73.5173319 139.334995,73.812 C138.936326,74.4186697 138.498664,74.9256646 138.021995,75.333 C137.545326,75.7403354 137.046997,75.9786663 136.526995,76.048 C136.180326,76.1000003 135.798997,76.0523341 135.382995,75.905 C134.966993,75.7576659 134.663662,75.5020018 134.472995,75.138 C134.420995,75.1726668 134.377662,75.1770001 134.342995,75.151 C134.308328,75.1249999 134.273662,75.0946668 134.238995,75.06 C134.204328,75.0253332 134.173995,75.0166666 134.147995,75.034 C134.121995,75.0513334 134.100328,75.0426668 134.082995,75.008 C134.065661,74.9559997 134.056995,74.8866671 134.056995,74.8 L134.056995,74.696 C134.074328,74.0893303 134.130661,73.4783364 134.225995,72.863 C134.321329,72.2476636 134.46866,71.6496696 134.667995,71.069 C134.867329,70.4883304 135.127327,69.9423359 135.447995,69.431 C135.768663,68.9196641 136.180326,68.4646687 136.682995,68.066 C136.856329,67.9619995 137.046994,67.9273332 137.254995,67.962 L137.384995,67.962 C137.436995,67.962 137.497661,67.9966663 137.566995,68.066 Z M136.682995,69.834 C136.578994,69.8166666 136.518328,69.7820003 136.500995,69.73 C136.483661,69.6779997 136.487995,69.6130004 136.513995,69.535 C136.539995,69.4569996 136.574661,69.3660005 136.617995,69.262 C136.661328,69.1579995 136.682995,69.0540005 136.682995,68.95 C136.318993,69.279335 136.037329,69.6779977 135.837995,70.146 C135.63866,70.6140023 135.495662,71.0949975 135.408995,71.589 C135.322328,72.0830025 135.283328,72.5639977 135.291995,73.032 C135.300661,73.5000023 135.322328,73.9073316 135.356995,74.254 C135.391662,74.5486681 135.452328,74.7869991 135.538995,74.969 C135.625662,75.1510009 135.755661,75.2593332 135.928995,75.294 C136.119662,75.3460003 136.370993,75.2940008 136.682995,75.138 C137.133664,74.9126655 137.49766,74.6006687 137.774995,74.202 C138.052329,73.8033313 138.277661,73.3786689 138.450995,72.928 C138.520328,72.6853321 138.576661,72.3950017 138.619995,72.057 C138.663328,71.7189983 138.650328,71.4026681 138.580995,71.108 C138.494328,70.7093313 138.27333,70.4190009 137.917995,70.237 C137.56266,70.0549991 137.150997,69.9206671 136.682995,69.834 Z M145.778661,68.066 L145.336661,68.508 C145.475328,68.4906666 145.687659,68.451667 145.973661,68.391 C146.259662,68.330333 146.541326,68.3 146.818661,68.3 C147.026662,68.3346668 147.199993,68.4039995 147.338661,68.508 C147.477328,68.6120005 147.563994,68.8113319 147.598661,69.106 C147.667995,69.5220021 147.776327,69.9423312 147.923661,70.367 C148.070995,70.7916688 148.18366,71.2119979 148.261661,71.628 C148.339661,72.0440021 148.335328,72.4383315 148.248661,72.811 C148.161994,73.1836685 147.927996,73.5173319 147.546661,73.812 C147.147992,74.4186697 146.71033,74.9256646 146.233661,75.333 C145.756992,75.7403354 145.258663,75.9786663 144.738661,76.048 C144.391992,76.1000003 144.010663,76.0523341 143.594661,75.905 C143.178659,75.7576659 142.875328,75.5020018 142.684661,75.138 C142.632661,75.1726668 142.589328,75.1770001 142.554661,75.151 C142.519994,75.1249999 142.485328,75.0946668 142.450661,75.06 C142.415994,75.0253332 142.385661,75.0166666 142.359661,75.034 C142.333661,75.0513334 142.311994,75.0426668 142.294661,75.008 C142.277327,74.9559997 142.268661,74.8866671 142.268661,74.8 L142.268661,74.696 C142.285994,74.0893303 142.342327,73.4783364 142.437661,72.863 C142.532995,72.2476636 142.680327,71.6496696 142.879661,71.069 C143.078995,70.4883304 143.338993,69.9423359 143.659661,69.431 C143.980329,68.9196641 144.391992,68.4646687 144.894661,68.066 C145.067995,67.9619995 145.25866,67.9273332 145.466661,67.962 L145.596661,67.962 C145.648661,67.962 145.709327,67.9966663 145.778661,68.066 Z M144.894661,69.834 C144.79066,69.8166666 144.729994,69.7820003 144.712661,69.73 C144.695327,69.6779997 144.699661,69.6130004 144.725661,69.535 C144.751661,69.4569996 144.786327,69.3660005 144.829661,69.262 C144.872994,69.1579995 144.894661,69.0540005 144.894661,68.95 C144.530659,69.279335 144.248995,69.6779977 144.049661,70.146 C143.850327,70.6140023 143.707328,71.0949975 143.620661,71.589 C143.533994,72.0830025 143.494994,72.5639977 143.503661,73.032 C143.512328,73.5000023 143.533994,73.9073316 143.568661,74.254 C143.603328,74.5486681 143.663994,74.7869991 143.750661,74.969 C143.837328,75.1510009 143.967327,75.2593332 144.140661,75.294 C144.331328,75.3460003 144.582659,75.2940008 144.894661,75.138 C145.34533,74.9126655 145.709326,74.6006687 145.986661,74.202 C146.263996,73.8033313 146.489327,73.3786689 146.662661,72.928 C146.731995,72.6853321 146.788327,72.3950017 146.831661,72.057 C146.874994,71.7189983 146.861995,71.4026681 146.792661,71.108 C146.705994,70.7093313 146.484996,70.4190009 146.129661,70.237 C145.774326,70.0549991 145.362663,69.9206671 144.894661,69.834 Z M151.442327,64.452 C151.667661,64.8333352 151.827993,65.2233313 151.923327,65.622 C152.018661,66.0206687 152.09666,66.4626642 152.157327,66.948 C152.217994,67.4333358 152.287327,67.974997 152.365327,68.573 C152.443327,69.171003 152.577659,69.8599961 152.768327,70.64 C152.976328,70.1893311 153.257992,69.6606697 153.613327,69.054 C153.968662,68.4473303 154.371658,67.8926692 154.822327,67.39 C154.978328,67.1993324 155.173326,67.0433339 155.407327,66.922 C155.641328,66.8006661 155.862326,66.6880005 156.070327,66.584 C156.191661,66.5146663 156.299993,66.4453337 156.395327,66.376 C156.490661,66.3066663 156.60766,66.2546668 156.746327,66.22 C156.65966,66.3933342 156.577327,66.5449993 156.499327,66.675 C156.421327,66.8050006 156.338994,66.9393326 156.252327,67.078 C156.044326,67.3553347 155.814662,67.6759982 155.563327,68.04 C155.311992,68.4040018 155.069328,68.780998 154.835327,69.171 C154.601326,69.561002 154.384661,69.9336649 154.185327,70.289 C153.985993,70.6443351 153.834327,70.9519987 153.730327,71.212 L154.536327,70.64 C154.882995,70.4146655 155.238325,70.3193332 155.602327,70.354 C155.827661,70.3713334 156.057326,70.4363328 156.291327,70.549 C156.525328,70.6616672 156.746326,70.7959992 156.954327,70.952 C157.162328,71.1080008 157.361659,71.2769991 157.552327,71.459 C157.742995,71.6410009 157.916326,71.8099992 158.072327,71.966 C158.418995,72.1393342 158.765659,72.4079982 159.112327,72.772 C159.458995,73.1360018 159.770992,73.4653319 160.048327,73.76 C160.134994,73.8466671 160.16966,73.9246663 160.152327,73.994 C160.134994,74.0633337 160.152327,74.1673326 160.204327,74.306 C160.238994,74.3926671 160.24766,74.5053326 160.230327,74.644 C160.212994,74.7826674 160.178327,74.9039995 160.126327,75.008 C160.056993,75.1466674 160.017994,75.2636662 160.009327,75.359 C160.00066,75.4543338 159.978994,75.5106666 159.944327,75.528 C159.528325,75.1639982 159.073329,74.7740021 158.579327,74.358 C158.085324,73.9419979 157.591329,73.5476685 157.097327,73.175 C156.603324,72.8023315 156.135329,72.4686681 155.693327,72.174 C155.251325,71.8793319 154.865662,71.6626674 154.536327,71.524 C154.328326,71.4026661 154.076995,71.4719987 153.782327,71.732 C153.487659,71.9920013 153.296994,72.3646642 153.210327,72.85 C153.210327,73.0060008 153.21466,73.1836657 153.223327,73.383 C153.231994,73.5823343 153.192994,73.7946655 153.106327,74.02 C153.07166,74.1066671 153.049994,74.2323325 153.041327,74.397 C153.03266,74.5616675 152.958994,74.6786663 152.820327,74.748 L152.378327,75.294 C152.048992,74.4099956 151.767328,73.4913381 151.533327,72.538 C151.299326,71.5846619 151.095661,70.6226715 150.922327,69.652 C150.748993,68.6813285 150.597328,67.7193381 150.467327,66.766 C150.337326,65.8126619 150.220327,64.8940044 150.116327,64.01 L150.064327,63.49 C150.064327,63.3686661 150.06866,63.2950001 150.077327,63.269 C150.085994,63.2429999 150.185659,63.2213334 150.376327,63.204 C150.428327,63.2386668 150.51066,63.2949996 150.623327,63.373 C150.735994,63.4510004 150.818327,63.5333329 150.870327,63.62 C150.956994,63.7413339 151.052326,63.8453329 151.156327,63.932 C151.260327,64.0186671 151.35566,64.1919987 151.442327,64.452 Z M165.165993,67.026 C165.30466,67.1646674 165.360993,67.2773329 165.334993,67.364 C165.308993,67.4506671 165.25266,67.4853334 165.165993,67.468 C164.940659,67.468 164.693661,67.4896665 164.424993,67.533 C164.156325,67.5763336 163.870328,67.6109999 163.566993,67.637 C163.263658,67.6630001 162.947328,67.6673334 162.617993,67.65 C162.288658,67.6326666 161.959328,67.5720005 161.629993,67.468 C161.491326,67.3293326 161.495659,67.2036672 161.642993,67.091 C161.790327,66.9783328 161.907326,66.8093345 161.993993,66.584 C162.045993,66.4279992 162.119659,66.319667 162.214993,66.259 C162.310327,66.198333 162.409993,66.1593334 162.513993,66.142 C162.704661,66.142 162.942992,66.1809996 163.228993,66.259 C163.514994,66.3370004 163.753325,66.3846666 163.943993,66.402 C164.238661,66.4366668 164.481325,66.484333 164.671993,66.545 C164.862661,66.605667 165.027326,66.7659987 165.165993,67.026 Z M164.619993,70.562 C164.723994,70.9606687 164.806326,71.324665 164.866993,71.654 C164.92766,71.983335 164.970993,72.2996651 164.996993,72.603 C165.022993,72.9063349 165.040326,73.2139984 165.048993,73.526 C165.05766,73.8380016 165.061993,74.1759982 165.061993,74.54 C165.061993,74.6093337 165.022993,74.6829996 164.944993,74.761 C164.866993,74.8390004 164.81066,74.9213329 164.775993,75.008 C164.706659,75.1640008 164.650327,75.2593332 164.606993,75.294 C164.563659,75.3286668 164.489994,75.3719997 164.385993,75.424 C164.143325,75.5280005 163.926661,75.6753324 163.735993,75.866 C163.510659,75.536665 163.358993,75.1553355 163.280993,74.722 C163.202993,74.2886645 163.150993,73.8380023 163.124993,73.37 C163.098993,72.9019977 163.072993,72.4296691 163.046993,71.953 C163.020993,71.476331 162.955994,71.0126689 162.851993,70.562 C162.799993,70.3193321 162.817326,70.1546671 162.903993,70.068 C162.99066,69.9813329 163.085993,69.9206668 163.189993,69.886 C163.311327,69.8513332 163.445659,69.8773329 163.592993,69.964 C163.740327,70.0506671 163.883326,70.1373329 164.021993,70.224 C164.143327,70.2933337 164.260326,70.3323333 164.372993,70.341 C164.48566,70.3496667 164.567993,70.4233326 164.619993,70.562 Z M173.949659,67.572 C174.070993,67.6933339 174.183659,67.8276659 174.287659,67.975 C174.39166,68.1223341 174.478325,68.2739992 174.547659,68.43 C174.686326,68.759335 174.759992,69.0843317 174.768659,69.405 C174.777326,69.7256683 174.65166,70.1113311 174.391659,70.562 C174.096991,71.0473358 173.719995,71.454665 173.260659,71.784 C172.801323,72.113335 172.302995,72.3213329 171.765659,72.408 C171.384324,72.4773337 171.002994,72.4730004 170.621659,72.395 C170.240324,72.3169996 169.876328,72.1480013 169.529659,71.888 C169.425659,71.9746671 169.343326,72.1003325 169.282659,72.265 C169.221992,72.4296675 169.200326,72.5813326 169.217659,72.72 C169.252326,72.9626679 169.343325,73.2269986 169.490659,73.513 C169.637993,73.7990014 169.798325,73.9939995 169.971659,74.098 C170.266327,74.2193339 170.67799,74.2280005 171.206659,74.124 C171.735328,74.0199995 172.298656,73.8596677 172.896659,73.643 C173.494662,73.4263323 174.08399,73.183668 174.664659,72.915 C175.245329,72.646332 175.743657,72.4166676 176.159659,72.226 C176.159659,72.3300005 176.137993,72.3993332 176.094659,72.434 C176.051326,72.4686668 175.994993,72.5293329 175.925659,72.616 C175.838992,72.7026671 175.74366,72.8066661 175.639659,72.928 C175.535659,73.0493339 175.414326,73.1533329 175.275659,73.24 C175.102325,73.3440005 174.972326,73.4783325 174.885659,73.643 C174.798992,73.8076675 174.634327,73.9593326 174.391659,74.098 C174.062324,74.2713342 173.728661,74.4489991 173.390659,74.631 C173.052657,74.8130009 172.718994,74.9776659 172.389659,75.125 C172.060324,75.2723341 171.726661,75.3849996 171.388659,75.463 C171.050657,75.5410004 170.716994,75.5626668 170.387659,75.528 C170.162325,75.4933332 169.975993,75.4326671 169.828659,75.346 C169.681325,75.2593329 169.50366,75.1293342 169.295659,74.956 C169.191659,74.8693329 169.070326,74.7826671 168.931659,74.696 C168.792992,74.6093329 168.688993,74.5226671 168.619659,74.436 C168.324991,74.0026645 168.12566,73.5390025 168.021659,73.045 C167.917659,72.5509975 167.895992,72.0570025 167.956659,71.563 C168.017326,71.0689975 168.142991,70.583669 168.333659,70.107 C168.524327,69.630331 168.775658,69.1926687 169.087659,68.794 C169.260993,68.5686655 169.473325,68.3390012 169.724659,68.105 C169.975994,67.8709988 170.253324,67.6630009 170.556659,67.481 C170.859994,67.2989991 171.180657,67.1560005 171.518659,67.052 C171.856661,66.9479995 172.198991,66.9046666 172.545659,66.922 C172.684326,66.9393334 172.809992,66.978333 172.922659,67.039 C173.035326,67.099667 173.160992,67.1646663 173.299659,67.234 C173.386326,67.2686668 173.494658,67.316333 173.624659,67.377 C173.75466,67.437667 173.862992,67.5026663 173.949659,67.572 Z M173.195659,69.106 C173.160992,68.9499992 173.06566,68.8113339 172.909659,68.69 C172.753658,68.5686661 172.580327,68.4690004 172.389659,68.391 C172.198991,68.3129996 172.008327,68.2653334 171.817659,68.248 C171.626991,68.2306666 171.488326,68.2393332 171.401659,68.274 C171.262992,68.3260003 171.10266,68.4169993 170.920659,68.547 C170.738658,68.6770006 170.565327,68.8286658 170.400659,69.002 C170.235992,69.1753342 170.079993,69.3616657 169.932659,69.561 C169.785325,69.7603343 169.676993,69.9466658 169.607659,70.12 C169.572992,70.1720003 169.542659,70.2543328 169.516659,70.367 C169.490659,70.4796672 169.494992,70.5619997 169.529659,70.614 C169.73766,70.8740013 170.049657,71.004 170.465659,71.004 C170.864328,71.004 171.293323,70.9086676 171.752659,70.718 C172.211995,70.5273324 172.536991,70.328001 172.727659,70.12 C172.744993,70.0853332 172.783992,70.0246671 172.844659,69.938 C172.905326,69.8513329 172.961659,69.7560005 173.013659,69.652 C173.065659,69.5479995 173.113326,69.4440005 173.156659,69.34 C173.199993,69.2359995 173.212993,69.1580003 173.195659,69.106 Z M183.721325,68.534 C183.634658,68.7940013 183.565325,68.9933326 183.513325,69.132 C183.461325,69.2706674 183.383326,69.2880005 183.279325,69.184 C183.036657,68.9413321 182.741994,68.6813347 182.395325,68.404 C182.048657,68.1266653 181.623994,67.9533337 181.121325,67.884 C180.79199,67.8493332 180.440994,67.8883328 180.068325,68.001 C179.695657,68.1136672 179.413993,68.3519982 179.223325,68.716 C179.049991,69.0280016 179.023991,69.4006645 179.145325,69.834 C179.249326,70.2846689 179.47899,70.6096657 179.834325,70.809 C180.18966,71.0083343 180.588323,71.1643328 181.030325,71.277 C181.472327,71.3896672 181.92299,71.4893329 182.382325,71.576 C182.841661,71.6626671 183.23599,71.8186655 183.565325,72.044 C183.669326,72.0960003 183.751658,72.1783328 183.812325,72.291 C183.872992,72.4036672 183.937992,72.5033329 184.007325,72.59 C184.093992,72.6940005 184.176325,72.7806663 184.254325,72.85 C184.332326,72.9193337 184.405992,73.0233326 184.475325,73.162 C184.527325,73.2660005 184.587992,73.3916659 184.657325,73.539 C184.726659,73.6863341 184.743992,73.8466658 184.709325,74.02 C184.657325,74.2453345 184.44066,74.4879987 184.059325,74.748 C183.227321,75.285336 182.351996,75.7143317 181.433325,76.035 C180.514654,76.3556683 179.543997,76.412001 178.521325,76.204 C178.399991,76.1693332 178.261326,76.0523343 178.105325,75.853 C177.949324,75.6536657 177.819326,75.5193337 177.715325,75.45 C177.43799,75.2939992 177.247326,75.0946679 177.143325,74.852 C177.004658,74.4013311 176.935325,73.907336 176.935325,73.37 C176.935325,73.1966658 176.965658,73.1143333 177.026325,73.123 C177.086992,73.1316667 177.143325,73.136 177.195325,73.136 C177.299326,73.136 177.416325,73.2053326 177.546325,73.344 C177.676326,73.4826674 177.814991,73.6429991 177.962325,73.825 C178.109659,74.0070009 178.248325,74.1716659 178.378325,74.319 C178.508326,74.4663341 178.616658,74.54 178.703325,74.54 C178.997993,74.6786674 179.353323,74.7566666 179.769325,74.774 C180.185327,74.7913334 180.605656,74.7523338 181.030325,74.657 C181.454994,74.5616662 181.853657,74.4056677 182.226325,74.189 C182.598994,73.9723322 182.897991,73.699335 183.123325,73.37 C183.123325,73.2833329 183.02366,73.1793339 182.824325,73.058 C182.624991,72.9366661 182.369327,72.8023341 182.057325,72.655 C181.745324,72.5076659 181.402994,72.3560008 181.030325,72.2 C180.657657,72.0439992 180.302327,71.8793342 179.964325,71.706 C179.626324,71.5326658 179.33166,71.3506676 179.080325,71.16 C178.828991,70.9693324 178.659992,70.7786676 178.573325,70.588 C178.521325,70.4493326 178.460659,70.3063341 178.391325,70.159 C178.321992,70.0116659 178.278659,69.9033337 178.261325,69.834 C178.174658,69.4526648 178.157325,69.0843351 178.209325,68.729 C178.261325,68.3736649 178.365324,68.0573347 178.521325,67.78 C178.677326,67.5026653 178.885324,67.2730009 179.145325,67.091 C179.405327,66.9089991 179.69999,66.7920003 180.029325,66.74 C180.549328,66.6706663 181.108322,66.666333 181.706325,66.727 C182.304328,66.787667 182.837323,66.9913316 183.305325,67.338 C183.443993,67.4593339 183.543658,67.5719995 183.604325,67.676 C183.664992,67.7800005 183.712658,67.9013326 183.747325,68.04 C183.764659,68.1266671 183.781992,68.2089996 183.799325,68.287 C183.816659,68.3650004 183.790659,68.4473329 183.721325,68.534 Z" id="by-hash-cookies-copy"></path>
            </g>
        </g>
    </g>
</svg>