<?xml version="1.0" encoding="UTF-8" standalone="no"?>
<svg width="1338px" height="383px" viewBox="0 0 1338 383" version="1.1" xmlns="http://www.w3.org/2000/svg" xmlns:xlink="http://www.w3.org/1999/xlink">
    <!-- Generator: Sketch 41.2 (35397) - http://www.bohemiancoding.com/sketch -->
    <title>Group 2</title>
    <desc>Created with Sketch.</desc>
    <defs></defs>
    <g id="Page-1" stroke="none" stroke-width="1" fill="none" fill-rule="evenodd">
        <g id="iPhone-7" transform="translate(0.000000, -284.000000)">
            <g id="Group-2" transform="translate(-163.000000, 280.000000)">
                <path d="M1619.10156,2 C1438.01301,23 602.418719,48 240.241624,12 C-121.93547,-24 33.283285,39 33.283285,39 L216.958811,441 L1507.86145,412" id="Path-2" stroke="#979797" fill="#E6E6E6" opacity="0.100000001"></path>
                <path d="M206.610894,59 C387.699441,80 576.548926,44 837.83383,28 C1099.11873,12 1657.90625,59 1657.90625,59 L1474.23072,461 L183.328081,432 C183.328081,432 25.5223473,38 206.610894,59 Z" id="Path-2" stroke="#979797" fill="#E6E6E6"></path>
                <path d="M739.528619,54 C867.724142,54 1035.21923,60.016477 1319.01197,54 C1602.80471,47.983523 1542.71145,17 1542.71145,17 L1604,448 L127.633801,412 C127.633801,412 76.8522262,169.369874 139.349434,69 C158.95873,37.5076715 385.813008,76.1618136 501.526528,78 C617.240048,79.8381864 611.333095,54 739.528619,54 Z" id="Path-2" fill="#F7F5F6"></path>
            </g>
        </g>
    </g>
</svg>